<!-- Generated by IcoMoon.io -->
<svg version="1.1" xmlns="http://www.w3.org/2000/svg" width="64" height="64" viewBox="0 0 64 64">
<title>mastilnitsata-feather-pen</title>
<path d="M5.876 61.321l0.854-3.411-2.355-0.93-1.618 2.666c0 0 0.892 2.419-0.099 4.354 0.001 0 1.24-2.111 3.218-2.679zM4.294 59.756c0.29-0.119 0.624 0.017 0.744 0.301 0.121 0.285-0.017 0.612-0.307 0.731s-0.624-0.017-0.744-0.301c-0.122-0.286 0.016-0.614 0.307-0.731z"></path>
<path d="M30.587 21.754c-6.783 5.563-15.663 17.022-23.193 30.408l-0.004-0.005-1.316 2.323 1.404 0.54 0.742-1.954c4.018-7.242 14.917-26.154 34.846-38.719 0 0 7.419-4.419 14.73-10.53-1.78 1.488-5.291 3.353-7.195 4.556-4.997 3.157-11.163 6.124-20.012 13.383z"></path>
<path d="M6.413 41.6c-1.542 5.452-1.454 9.604-0.857 10.745h0.933c2.576-5.336 14.984-24.665 22.707-30.716 8.002-6.269 14.174-9.917 19.365-12.577 1.823-0.934 3.693-2.199 5.379-3.467 2.048-1.615 4.124-3.342 5.941-5.032l-5.269 3.455 2.349-3.593-4.485 4.561 2.919-4.976c-6.905 0.623-13.312 4.077-13.312 4.077-2.563 3.041-4.628 7.877-4.628 7.877-0.072-2.419 1.566-6.081 1.566-6.081-1.21 0.553-5.809 3.179-5.809 3.179-2.249 1.866-2.948 6.772-2.948 6.772-0.428-1.935 1.067-5.666 1.067-5.666-6.479 3.732-11.107 10.089-11.107 10.089-3.203 6.288-0.569 11.194-1.567 10.020s-0.783-5.459-0.783-5.459c-6.764 6.496-7.475 9.605-7.475 9.605-1.139 2.764-2.136 10.158-2.136 10.158-0.641-0.691 0-4.561 0-4.561-1.638 3.455-0.854 6.703-0.854 6.703-0.783-0.277-0.997-5.114-0.997-5.114z"></path>
<path d="M59.882 2.741c0 0-2.604 2.524-5.941 5.032-5.231 4.126-10.268 7.498-10.268 7.498-19.732 11.66-30.726 30.687-34.36 37.211h1.932c0.683-0.547 1.708-0.96 5.991-2.2 5.411-1.566 8.638-4.837 8.638-4.837s-4.936 2.764-7.262 2.488-5.452 0.599-5.452 0.599-1.194-0.553 4.692-1.428 15.568-7.463 15.568-7.463-3.702 1.52-5.411 1.382c-1.708-0.139-5.933 0-5.933 0 2.8-0.645 5.411-0.276 9.682-1.889s4.034-1.474 4.034-1.474c4.841-1.613 6.852-6.633 6.852-6.633-0.837 0.323-7.233 1.105-9.885 0.323s-7.172 0-7.172 0c4.272-1.428 5.221-0.783 6.265-0.829s4.415 0.23 11.107-2.073 8.591-5.16 8.591-5.16l-4.513 0.603c2.947-0.496 6.269-2.446 6.269-2.446-2.041 0.553-5.221 0.829-5.221 0.829 3.75-0.829 5.838-1.98 5.838-1.98 3.512-2.672 4.319-6.633 4.319-6.633-4.984 1.704-8.923 0.921-8.923 0.921 6.835-0.46 8.734-2.212 9.682-2.625 0.95-0.415 1.341-2.131 1.341-2.131-3.453 1.244-7.369 1.451-7.369 1.451 4.236-0.657 7.866-2.799 7.866-2.799v-2.144c-1.638 0.933-4.52 1.659-4.52 1.659l4.485-2.902c0.252-1.452-0.923-2.35-0.923-2.35z"></path>
<path d="M4.549 56.127l2.668 1.069 0.497-1.181-2.667-1.068z"></path>
<path d="M34.196 55.139c-8.813 4.237-17.28 7.125-28.541 7.504-1.051 0.036-1.056 1.086 0 1.051 10.073-0.338 18.455-2.504 26.538-6.292 9.005-4.221 17.275-7.759 28.555-8.961 1.040-0.111 0.598-1.123-0.435-1.013-9.989 1.066-18.105 3.86-26.117 7.712z"></path>
</svg>
