<!-- Generated by IcoMoon.io -->
<svg version="1.1" xmlns="http://www.w3.org/2000/svg" width="154" height="32" viewBox="0 0 154 32">
<title>mastilnitsa-handmade</title>
<path d="M61.844 0.42c-1.242 0.441-2.754 0.536-8.288 0.519-4.668-0.014-6.060-0.034-10.215-0.144-0.724-0.020-2.266 0.002-3.425 0.047s-3.237 0.119-4.615 0.164c-2.686 0.088-3.169 0.119-3.886 0.249-0.253 0.045-0.817 0.12-1.253 0.165-2.463 0.256-3.249 0.458-4.458 1.141-1.847 1.043-3.456 2.724-3.735 3.905-0.144 0.608-0.411 0.774-0.411 0.255 0-0.56 0.48-1.531 1.024-2.073 0.445-0.441 0.481-0.504 0.366-0.62-0.174-0.174-0.321-0.045-0.604 0.534-0.121 0.248-0.254 0.451-0.294 0.451s-0.074 0.044-0.074 0.098-0.052 0.157-0.116 0.23c-0.119 0.136-0.516 0.841-0.856 1.519-0.25 0.498-0.214 0.475-1.577 1.028-0.643 0.262-1.245 0.517-1.336 0.568s-0.468 0.243-0.836 0.426c-1.487 0.741-2.383 1.358-2.26 1.556 0.127 0.205 2.24 0.11 2.543-0.114s2.772-1.468 2.913-1.468c0.048 0 0.401-0.134 0.784-0.298 1.065-0.456 2.089-0.151 3.825 1.139 1.773 1.317 3.549 1.865 5.98 1.843 1.070-0.009 1.462-0.103 1.462-0.35 0-0.253-0.157-0.283-1.504-0.288-0.712-0.003-1.539-0.053-1.838-0.112s-0.863-0.164-1.253-0.235c-0.892-0.162-2.115-0.779-2.913-1.47-0.305-0.265-0.79-0.657-1.077-0.872-0.413-0.309-0.658-0.608-0.501-0.611 0.012-0 0.791-0.265 1.734-0.588s2.239-0.716 2.883-0.872c0.643-0.157 1.32-0.324 1.504-0.371 1.437-0.371 5.811-1.11 7.979-1.349 0.482-0.053 1.028-0.148 1.211-0.211s0.455-0.115 0.603-0.116c0.147-0.001 0.636-0.056 1.086-0.123s1.551-0.181 2.447-0.254c1.909-0.155 5.317-0.459 5.829-0.519 0.295-0.035 0.476 0.016 1.067 0.301 1.008 0.486 1.232 0.44 0.332-0.068-0.618-0.348-0.584-0.425 0.188-0.425 0.356-0 1.155-0.080 1.775-0.177s1.447-0.207 1.838-0.245c0.769-0.073 2.353-0.284 3.091-0.411 0.253-0.043 0.554-0.095 0.669-0.114s0.504-0.098 0.865-0.176c0.361-0.077 0.678-0.12 0.703-0.094 0.058 0.058 0.078 0.042-0.524 0.422-0.648 0.41-1.82 1.26-2.226 1.617-0.288 0.253-0.351 0.274-0.663 0.221-0.565-0.095-1.121 0.256-0.704 0.445 0.115 0.052 0.209 0.128 0.209 0.169 0 0.105-1.249 0.852-2.089 1.249-1.772 0.837-2.273 1.021-3.76 1.38-1.004 0.242-0.987 0.243-2.107-0.129-0.81-0.27-1.085-0.33-1.16-0.256-0.167 0.167-0.021 0.336 0.441 0.512 0.244 0.093 0.59 0.23 0.767 0.306l0.323 0.137-0.185 0.197c-0.174 0.186-0.543 0.293-2.34 0.68-1.273 0.275-4.541 0.245-5.084-0.046-0.541-0.29-0.433 0 0.174 0.468l0.521 0.401-0.792 0.103c-0.436 0.057-1.224 0.185-1.751 0.286-1.435 0.273-1.879 0.16-3.257-0.829-0.639-0.458-1.179-0.769-1.337-0.769-0.259 0-0.010 0.293 0.561 0.659 0.935 0.599 1.775 1.205 1.775 1.279 0 0.133-0.495 0.193-1.592 0.193h-1.132l-0.963-0.47c-0.53-0.258-1.091-0.58-1.249-0.714-0.285-0.244-1.698-1.050-2.601-1.485-0.855-0.411-1.467-0.44-1.116-0.052 0.086 0.095 0.208 0.172 0.273 0.172 0.437 0 2.598 1.263 4.636 2.711 0.718 0.51 3.262 0.624 3.983 0.179 0.055-0.034 0.466-0.114 0.913-0.178s1.15-0.194 1.564-0.29c0.414-0.096 1.176-0.197 1.693-0.223 1.013-0.053 1.333-0.26 0.894-0.581-0.233-0.17-0.201-0.175 1.679-0.226 1.385-0.038 1.999-0.093 2.882-0.261 1.826-0.346 2.030-0.402 2.218-0.605 0.097-0.105 0.232-0.191 0.3-0.191s0.191-0.075 0.275-0.167c0.083-0.092 0.212-0.167 0.287-0.167s0.696-0.151 1.38-0.336c1.154-0.311 1.801-0.557 3.102-1.177 0.28-0.133 0.531-0.242 0.56-0.242 0.060 0 1.67-1.004 1.731-1.080 0.023-0.028 0.155-0.123 0.293-0.21s0.42-0.301 0.626-0.474c0.913-0.765 3.033-2.214 3.823-2.612 0.328-0.165 0.721-0.41 0.874-0.543 0.154-0.135 0.516-0.313 0.819-0.402 0.479-0.14 0.545-0.185 0.568-0.385 0.033-0.281-0.212-0.296-0.887-0.056zM46.663 1.429c2.068 0.049 4.662 0.085 5.765 0.079 2.36-0.012 4.497 0.078 4.052 0.171-0.161 0.034-0.856 0.141-1.546 0.239-1.271 0.18-1.709 0.245-3.133 0.459-0.436 0.066-1.188 0.143-1.671 0.173s-1.253 0.106-1.713 0.171c-0.46 0.064-1.021 0.118-1.248 0.118l-0.412 0.002 0.239-0.25c0.366-0.382 0.2-0.386-0.441-0.012-0.564 0.33-0.611 0.341-1.699 0.426-1.897 0.149-3.929 0.334-4.586 0.418-0.345 0.044-1.116 0.119-1.713 0.167s-1.537 0.143-2.089 0.21c-1.53 0.187-1.495 0.204-0.88-0.417 0.643-0.649 0.548-0.947-0.138-0.439-0.202 0.149-0.6 0.445-0.886 0.657-0.397 0.295-0.617 0.398-0.937 0.437-0.23 0.028-0.662 0.090-0.961 0.137s-0.844 0.123-1.212 0.17c-0.368 0.046-1.044 0.173-1.504 0.283-3.149 0.75-3.266 0.709-1.922-0.679 0.493-0.509 0.505-0.525 0.376-0.525-0.183 0-0.83 0.551-1.558 1.326-0.638 0.68-0.825 0.829-1.128 0.905-0.847 0.21-1.998 0.556-2.641 0.796-0.882 0.328-0.898 0.297-0.304-0.577 0.812-1.196 1.719-2.076 2.652-2.572 0.192-0.102 0.603-0.323 0.914-0.491 0.896-0.484 1.59-0.642 3.778-0.857 0.735-0.072 1.638-0.166 2.005-0.208s1.702-0.114 2.966-0.16c1.264-0.045 3.231-0.117 4.37-0.158s2.096-0.098 2.125-0.126c0.028-0.028 0.336-0.032 0.684-0.008s2.325 0.084 4.393 0.133zM9.441 11.159c-0.115 0.020-0.541 0.080-0.947 0.133l-0.738 0.097-0.336 0.446c-0.522 0.691-0.39 1.823 0.26 2.214 0.29 0.174 2.113 0.258 2.355 0.108 0.138-0.085 1.542-0.285 2.015-0.286 0.391-0.001 0.494-0.032 0.567-0.169 0.104-0.193 0.437-0.346 1.086-0.499 0.253-0.060 0.61-0.185 0.794-0.278 0.224-0.114 0.537-0.178 0.949-0.195 0.757-0.031 0.949-0.087 0.914-0.268-0.023-0.12-0.21-0.145-1.404-0.188-3.618-0.13-4.101-0.422-0.672-0.407 3.167 0.014 4.558 0.166 4.81 0.525 0.589 0.841-0.406 1.559-1.99 1.437-1.353-0.105-1.565 0.355-0.246 0.533 2.057 0.278 3.639 0.092 3.936-0.463 0.353-0.658 0.060-2.035-0.49-2.303-0.274-0.133-2.934-0.404-3.76-0.382-0.161 0.004-1.777-0.015-3.593-0.042s-3.394-0.034-3.509-0.013zM10.444 14.708c-0.299 0.032-0.75 0.040-1.002 0.018-1.118-0.096-2.491 0.243-4.147 1.026-4.264 2.014-4.331 2.076-4.242 3.957 0.055 1.152 0.112 1.699 0.188 1.797 0.039 0.050 0.117 0.336 0.173 0.635s0.152 0.694 0.212 0.878 0.155 0.56 0.212 0.836c0.271 1.317 0.748 2.085 1.797 2.895 0.43 0.332 0.972 0.772 1.629 1.324 0.75 0.63 1.132 0.919 1.337 1.014 0.115 0.053 0.481 0.221 0.814 0.373 0.603 0.275 0.606 0.278 0.606 0.606 0 1.044 1.349 1.279 7.294 1.27 1.805-0.003 2.108-0.059 1.849-0.345-0.119-0.131-0.26-0.16-0.774-0.16h-0.629l-0.381-0.397c-0.363-0.378-0.397-0.456-0.704-1.624-0.341-1.296-0.46-1.53-1.234-2.421-0.706-0.813-0.807-1.101-0.916-2.618-0.358-4.941-0.13-6.387 1.209-7.66 0.756-0.719 0.793-0.711 0.401 0.078-0.583 1.173-0.634 1.607-0.638 5.41-0.003 3.577 0.043 4.073 0.391 4.183 0.328 0.104 0.346-0.035 0.258-1.987-0.177-3.961-0.070-6.447 0.31-7.168 0.209-0.397 0.456-0.915 0.563-1.178 0.097-0.239 0.54-0.326 1.655-0.326 0.289 0 0.616-0.034 0.726-0.076 0.132-0.050 0.413-0.036 0.82 0.042 0.756 0.144 0.744 0.144 0.744 0.007 0-0.147-0.289-0.281-0.752-0.349-0.523-0.077-7.105-0.11-7.77-0.038zM20.318 15.345c0.018 0.095 0.289 0.222 0.863 0.403 1.589 0.503 2.857 1.429 4.354 3.182l0.408 0.478-0.003 1.387c-0.005 2.147-0.35 3.664-0.986 4.342-0.328 0.35-2.485 2.161-2.938 2.466-0.184 0.124-0.578 0.394-0.877 0.599-1.52 1.046-3.239 0.734-3.457-0.628-0.093-0.586 0.345-1.794 0.956-2.636 0.167-0.23 0.362-0.531 0.434-0.668 0.281-0.538 1.187-1.472 1.733-1.785 0.735-0.423 0.711-0.886-0.026-0.5-2.511 1.316-5.045 4.764-4.732 6.44 0.36 1.929 2.127 2.444 4.419 1.288 4.501-2.27 6.438-4.846 6.447-8.576 0.002-0.948 0.062-1.337 0.206-1.337 0.064 0 0.189 0.141 0.278 0.313s0.363 0.614 0.608 0.981c0.693 1.038 1.2 2.073 1.958 3.998 0.16 0.406 0.477 1.107 0.705 1.558s0.414 0.844 0.414 0.876 0.182 0.326 0.405 0.656c0.223 0.33 0.513 0.763 0.644 0.963 0.447 0.681 1.349 1.284 1.754 1.172 0.486-0.134 1.462-1.754 2.371-3.936 0.547-1.312 1.902-3.779 2.166-3.942 0.297-0.183 1.666 3.262 1.89 4.755 0.027 0.184 0.084 0.748 0.125 1.254 0.1 1.228 0.205 1.521 0.658 1.824 0.512 0.343 0.583 0.223 0.32-0.541-0.116-0.338-0.236-0.859-0.266-1.158-0.14-1.385-0.488-3.178-1.119-5.765-0.497-2.038-0.498-2.207-0.019-2.962 0.272-0.428 0.358-0.965 0.155-0.965-0.127 0-0.869 0.754-1.152 1.17-0.109 0.161-0.266 0.366-0.349 0.457-0.134 0.146-0.442 0.633-0.814 1.287-0.675 1.186-1.016 1.81-1.25 2.29-0.152 0.312-0.393 0.725-0.535 0.919s-0.438 0.626-0.657 0.961c-0.22 0.334-0.611 0.861-0.869 1.169-0.921 1.102-1.072 1.081-1.846-0.261-0.128-0.223-0.315-0.523-0.415-0.668-0.282-0.41-1.295-2.033-1.702-2.728-0.202-0.345-0.59-0.965-0.862-1.379s-0.616-0.94-0.765-1.17c-0.761-1.177-0.947-1.454-1.237-1.838-0.173-0.23-0.436-0.583-0.583-0.786-0.279-0.382-1.029-0.893-2.273-1.547-0.368-0.193-0.744-0.395-0.836-0.448-1.016-0.588-3.769-1.305-3.703-0.964zM5.758 16.074c-0.019 0.018-0.317 0.255-0.661 0.528-0.541 0.428-1.805 1.636-2.254 2.156-0.325 0.375-0.364 0.736-0.313 2.881 0.041 1.723 0.032 2.016-0.061 1.84-0.199-0.378-0.466-2.429-0.489-3.76-0.023-1.339-0.131-1.192 2.090-2.827 0.44-0.324 1.945-1.053 1.689-0.818zM81.88 19.503c0 0.067 0.23 0.321 0.51 0.565 0.82 0.713 1.425 1.557 1.277 1.782-0.071 0.108-0.098 0.277-0.069 0.423 0.192 0.96-0.66 3.354-1.437 4.038-0.715 0.63-0.982 0.361-0.988-0.995-0.004-0.841-0.128-0.932-0.457-0.335-0.411 0.746-0.596 2.029-0.373 2.588 0.718 1.793 3.118-0.723 3.784-3.965 0.281-1.369 0.28-1.369 1.292 0.719 1.483 3.059 2.455 4.39 2.995 4.098 0.508-0.275 1.057-1.61 0.742-1.804-0.071-0.044-0.163 0.054-0.587 0.621l-0.155 0.208-0.28-0.298c-0.244-0.26-1.3-2.052-2.284-3.878-0.563-1.045-2.287-3.098-3.044-3.628-0.298-0.208-0.925-0.302-0.925-0.138zM48.514 20.157c-0.131 0.241-0.385 0.729-0.565 1.086-0.363 0.721-0.31 0.699-1.214 0.511-1.364-0.283-2.893-0.025-3.702 0.625-0.328 0.263-0.304 1.712 0.054 3.403 0.318 1.502 0.443 2.433 0.443 3.312 0 0.916 0.443 0.856 0.818-0.112 0.078-0.202 0.329-0.705 0.557-1.119s0.491-0.893 0.585-1.066c0.094-0.173 0.345-0.605 0.559-0.961s0.613-1.080 0.889-1.608c0.726-1.393 1.136-1.319 0.962 0.173-0.098 0.842 0.212 2.383 0.667 3.316 0.568 1.166 1.125 1.121 2.003-0.162 0.516-0.754 0.32-0.926-0.309-0.27-0.203 0.212-0.41 0.36-0.46 0.328-0.117-0.072-0.451-0.739-0.589-1.172-0.058-0.184-0.135-0.372-0.172-0.418-0.229-0.291-0.473-2.671-0.301-2.944 0.036-0.058 0.143-0.105 0.239-0.105 0.526 0 2.055-0.961 1.952-1.227-0.026-0.068-0.047-0.139-0.047-0.158 0-0.112-0.455-0.004-0.711 0.169-0.337 0.229-1.121 0.433-1.341 0.349-0.156-0.060-0.129-0.78 0.057-1.522 0.204-0.812-0.024-1.073-0.375-0.43zM124.682 20.863c-0.147 0.312-0.326 0.713-0.397 0.892-0.125 0.313-0.139 0.322-0.442 0.271-2.388-0.408-3.724-0.3-3.916 0.318-0.030 0.095-0.16 0.295-0.29 0.443-0.531 0.609-0.614 2.358-0.206 4.325 0.196 0.943 0.222 1.242 0.198 2.264-0.020 0.907-0 1.21 0.088 1.316 0.193 0.233 0.32 0.157 0.461-0.276 0.322-0.985 1.429-2.936 2.888-5.088 0.176-0.259 0.493-0.819 0.706-1.244 0.582-1.165 0.613-1.111 0.653 1.128 0.045 2.581 0.313 3.317 1.249 3.423 0.432 0.048 0.677-0.143 1.135-0.89 0.467-0.761 0.116-0.993-0.519-0.343-0.178 0.182-0.355 0.311-0.394 0.287-0.171-0.106-0.396-0.714-0.445-1.208-0.030-0.295-0.128-0.876-0.22-1.289-0.103-0.468-0.156-0.97-0.14-1.328l0.026-0.576 0.651-0.343c0.719-0.379 1.396-0.911 1.396-1.099 0-0.133-0.213-0.166-0.288-0.044-0.057 0.093-1.11 0.341-1.441 0.34-0.399-0.001-0.481-0.328-0.226-0.903 0.448-1.014-0.056-1.371-0.527-0.374zM145.684 20.706c-0.076 0.084-0.138 0.214-0.138 0.289s-0.080 0.349-0.177 0.609l-0.177 0.473-0.485-0.055c-0.267-0.030-0.751-0.128-1.076-0.218-1.466-0.406-2.996 0.117-3.124 1.068-0.023 0.172-0.087 0.483-0.142 0.689-0.126 0.475-0.054 1.542 0.165 2.456 0.381 1.587 0.428 1.901 0.46 3.080 0.035 1.305 0.054 1.399 0.277 1.399 0.136-0 0.427-0.555 0.439-0.836 0.003-0.068 0.15-0.388 0.327-0.709s0.457-0.848 0.622-1.17c0.165-0.321 0.384-0.716 0.488-0.877 0.272-0.424 0.838-1.37 1.236-2.067 0.484-0.848 0.534-0.849 0.467-0.013-0.073 0.931 0.265 2.576 0.585 2.842 0.075 0.062 0.222 0.248 0.326 0.413 0.687 1.088 4.993 1.18 6.523 0.138 1.333-0.908 1.576-2.803 0.462-3.612-0.833-0.605-2.31-0.751-2.879-0.286-0.315 0.257-0.092 0.354 0.545 0.237 0.665-0.123 1.063 0.093 1.595 0.866 0.956 1.388 0.319 2.648-1.467 2.906-2.891 0.418-5.095-1.139-5.092-3.597 0.001-1.155 0.089-1.298 1.124-1.835 1.231-0.638 1.549-1.027 0.69-0.842-0.184 0.040-0.575 0.098-0.869 0.131l-0.535 0.059 0.059-0.323c0.132-0.726 0.151-0.949 0.1-1.153-0.064-0.253-0.143-0.268-0.33-0.061zM60.641 20.95c-0.546 0.632-0.873 1.875-0.506 1.927 0.135 0.019 0.215-0.034 0.286-0.19 0.152-0.333 0.24-0.239 0.773 0.819l0.494 0.981-0.093 1.688c-0.11 1.995-0.086 2.091 0.508 2.048l0.35-0.025-0.029-1.504c-0.023-1.178-0.002-1.585 0.097-1.88 0.069-0.207 0.166-0.57 0.215-0.807 0.183-0.888 0.696-1.775 0.966-1.671 0.802 0.308 1.547 2.853 1.55 5.298l0 0.522h0.287c0.383 0 0.403-0.085 0.38-1.618-0.028-1.791-0.033-1.733 0.207-2.397 0.343-0.953 0.99-1.658 1.42-1.55 0.532 0.133 1.112 1.924 1.253 3.871 0.075 1.025 0.339 1.695 0.744 1.886 0.681 0.321 1.065-0.167 0.573-0.728-0.201-0.228-0.262-0.405-0.344-0.979-0.055-0.385-0.152-1.057-0.217-1.494s-0.157-1.134-0.205-1.551c-0.109-0.95-0.278-1.451-0.589-1.749-0.529-0.506-1.907-0.012-2.77 0.995l-0.222 0.259-0.060-0.251c-0.465-1.93-2.797-1.709-3.301 0.313-0.132 0.53-0.182 0.503-0.363-0.2-0.376-1.46-1.049-2.425-1.404-2.014zM54.925 21.464c-0.473 0.223-1.435 1.069-1.901 1.671-0.817 1.054-0.085 3.522 1.697 5.721 0.256 0.315 0.54 0.675 0.632 0.8 0.851 1.153 1.53 1.564 0.805 0.487-1.719-2.552-2.187-3.694-2.18-5.325 0.010-2.385 1.314-3.651 2.747-2.668 0.68 0.466 0.744 0.681 0.651 2.163-0.038 0.608 0.442 0.326 0.832-0.489 0.392-0.818 0.131-1.405-0.897-2.015-1.107-0.658-1.582-0.726-2.386-0.346zM129.232 21.479c-0.080 0.047-0.146 0.156-0.146 0.242s-0.113 0.463-0.251 0.837c-0.308 0.835-0.194 1.089 0.241 0.536 0.238-0.303 0.436-0.229 0.664 0.248 0.439 0.919 0.766 3.809 0.513 4.535-0.129 0.371 0.103 0.896 0.361 0.818 0.333-0.101 0.351-0.187 0.406-1.942 0.090-2.868 0.888-4.473 1.697-3.412 0.204 0.267 0.798 1.574 0.798 1.755 0 0.043 0.099 0.289 0.221 0.546 0.215 0.455 0.22 0.496 0.173 1.647-0.050 1.245-0.022 1.369 0.316 1.369 0.318 0 0.376-0.158 0.38-1.040 0.002-0.462 0.041-1.009 0.087-1.216s0.115-0.695 0.153-1.086c0.080-0.813 0.498-1.881 0.77-1.967 0.806-0.256 1.319 0.754 1.913 3.764 0.193 0.975 0.368 1.295 0.711 1.295 0.322 0 0.426-0.22 0.246-0.524-0.163-0.276-0.322-1.292-0.415-2.651-0.208-3.032-0.797-3.855-2.226-3.113-0.649 0.338-0.964 0.682-1.209 1.322-0.179 0.468-0.324 0.47-0.441 0.005-0.088-0.351-0.514-1.058-0.878-1.459-0.374-0.412-1.28-0.007-1.964 0.878-0.513 0.664-0.529 0.661-0.661-0.099-0.138-0.794-0.218-0.933-0.679-1.167-0.459-0.233-0.561-0.248-0.779-0.122zM72.047 21.73c-0.443 0.283-0.82 1.171-0.594 1.397 0.175 0.175 0.309 0.11 0.485-0.234 0.094-0.184 0.191-0.334 0.215-0.334 0.197 0 0.537 1.538 0.537 2.424 0 3.354 2.47 4.495 3.883 1.795 0.464-0.885 0.466-0.885 0.588 0.083 0.116 0.926 0.669 1.65 1.21 1.585 0.115-0.014 0.238-0.028 0.274-0.032s0.215-0.336 0.398-0.738c0.183-0.402 0.389-0.838 0.457-0.968 0.263-0.503 0.010-0.54-0.443-0.065-0.411 0.431-0.584 0.516-0.827 0.405-0.424-0.193-0.705-2.255-0.521-3.821 0.173-1.467 0.167-1.524-0.162-1.619-0.494-0.143-0.526-0.069-0.556 1.286-0.058 2.66-0.838 4.451-1.875 4.31-1.346-0.183-1.842-1.217-1.842-3.843 0-1.487-0.019-1.554-0.493-1.71-0.377-0.125-0.423-0.12-0.734 0.079zM96.756 21.662c-0.26 0.132-0.31 0.371-0.401 1.925-0.086 1.469 0.009 1.36-1.064 1.227-1.906-0.235-2.977-0.044-3.532 0.63l-0.234 0.284 0.003-1.522c0.003-1.694-0.041-1.873-0.561-2.257-0.631-0.467-1.081-0.177-1.354 0.874-0.148 0.572 0.033 0.655 0.421 0.193l0.272-0.324 0.207 0.456c0.451 0.99 0.506 1.447 0.39 3.182-0.119 1.779-0.075 1.994 0.411 1.994 0.296 0 0.341-0.099 0.43-0.961 0.176-1.69 0.43-1.852 2.752-1.757 1.877 0.076 1.721 0.003 1.78 0.838 0.115 1.634 1.347 2.536 1.85 1.354 0.424-0.998 0.51-1.36 0.339-1.426-0.212-0.081-0.345 0.024-0.581 0.457-0.318 0.584-0.664 0.227-0.726-0.751l-0.029-0.45 0.403-0.103c0.222-0.057 0.511-0.183 0.644-0.282s0.273-0.178 0.313-0.178c0.225 0 0.372-0.22 0.238-0.355-0.123-0.123-0.185-0.117-0.756 0.079-0.342 0.117-0.681 0.191-0.752 0.163-0.169-0.065-0.174-1.077-0.010-2.311 0.142-1.074 0.066-1.241-0.45-0.98zM109.681 21.741c-0.204 0.15-0.989 1.501-0.961 1.653 0.045 0.244 0.293 0.18 0.481-0.124 0.43-0.696 0.929 0.206 1.016 1.838 0.082 1.529 0.212 1.945 0.876 2.813 0.774 1.011 2.241 0.633 3.056-0.787 0.218-0.381 0.398-0.512 0.4-0.292 0.003 0.681 0.718 1.483 1.32 1.483h0.372l-0.059 0.602c-0.079 0.802-0.185 0.992-1.233 2.214-0.293 0.341-0.346 0.613-0.12 0.607 0.333-0.008 1.759-1.634 2.13-2.426 1.122-2.405 1.046-2.6-0.675-1.738-0.422 0.212-0.725-0.080-0.88-0.846-0.194-0.956-0.215-1.262-0.222-3.133l-0.007-1.922-0.193-0.027c-0.375-0.053-0.431 0.094-0.376 0.992 0.188 3.086-1.246 5.64-2.57 4.577-0.684-0.55-0.909-1.293-1.116-3.68-0.137-1.584-0.244-1.849-0.764-1.887-0.181-0.013-0.396 0.024-0.477 0.084zM100.291 21.967c-0.313 0.191-0.359 0.258-0.548 0.8-0.247 0.71-0.104 0.868 0.303 0.334 0.307-0.402 0.318-0.393 0.618 0.484 0.222 0.651 0.265 0.901 0.265 1.547 0 1.961 0.251 2.653 1.134 3.126 1.178 0.632 1.943 0.194 3.054-1.749l0.272-0.476 0.066 0.246c0.036 0.135 0.090 0.472 0.12 0.748 0.095 0.883 0.612 1.403 1.309 1.317 0.283-0.035 0.647-0.351 0.647-0.561 0-0.030 0.091-0.25 0.202-0.488 0.234-0.503 0.387-1.028 0.319-1.096-0.139-0.139-0.36-0.010-0.556 0.325-0.216 0.37-0.499 0.631-0.683 0.631-0.363 0-0.881-2.629-0.812-4.127l0.053-1.161-0.326 0.061c-0.179 0.034-0.356 0.080-0.392 0.102-0.076 0.047-0.010 0.607 0.12 1.016 0.418 1.318-1.093 4.526-2.132 4.526-0.972 0-1.482-1.178-1.807-4.177-0.154-1.423-0.524-1.854-1.224-1.427zM142.641 22.499c0.477 0.297 1.195 0.599 1.637 0.688 0.153 0.031 0.298 0.109 0.323 0.174 0.056 0.146-0.726 1.555-1.687 3.041-0.193 0.299-0.478 0.778-0.632 1.064-0.295 0.546-0.377 0.562-0.495 0.095-0.039-0.155-0.188-0.658-0.33-1.117-0.814-2.63-0.76-3.706 0.205-4.135 0.301-0.134 0.533-0.089 0.98 0.19zM45.575 22.523c0.827 0.303 1.244 0.475 1.327 0.545 0.089 0.075-0.428 1.1-1.233 2.447-0.333 0.557-0.715 1.21-0.85 1.451-0.347 0.622-0.356 0.611-0.932-1.17-1.038-3.211-0.577-4.103 1.688-3.273zM121.641 22.63c0.304 0.085 0.834 0.222 1.179 0.304s0.66 0.179 0.7 0.216c0.090 0.080-0.595 1.441-1.048 2.083-0.178 0.253-0.524 0.76-0.769 1.128-1.032 1.554-0.959 1.504-1.151 0.773-0.076-0.287-0.238-0.898-0.361-1.357-0.148-0.555-0.217-1.004-0.204-1.337 0.011-0.276-0.008-0.637-0.043-0.804-0.188-0.908 0.529-1.332 1.697-1.005zM11.218 29.902c1.715 0.148 1.742 0.153 2.359 0.466 0.962 0.488 0.703 0.585-0.81 0.301-0.776-0.145-1.557-0.227-2.787-0.293-0.591-0.032-0.908-0.199-0.942-0.498-0.026-0.225-0.013-0.236 0.209-0.183 0.13 0.031 1.017 0.124 1.971 0.206z"></path>
</svg>
