<!-- Generated by IcoMoon.io -->
<svg version="1.1" xmlns="http://www.w3.org/2000/svg" width="112" height="32" viewBox="0 0 112 32">
<title>mastilnitsata-brand-inkpot</title>
<path d="M19.734 0.396c-5.374 0.835-9.595 4.859-10.713 10.21-0.116 0.557-0.128 0.583-0.503 1.101-0.434 0.6-1.067 1.601-1.412 2.234l-0.233 0.426h-4.955v1.556h1.556v1.515l-0.511 0.734c-0.413 0.593-0.67 0.89-1.34 1.551-0.456 0.45-0.83 0.847-0.83 0.882s-0.098 0.391-0.216 0.791l-0.215 0.726v4.745h14.003l0.001-2.321 0.001-2.321-0.439-1.685-0.823-0.817c-0.653-0.649-0.929-0.969-1.338-1.553l-0.515-0.735v-1.511h1.556v-1.556h-2.023c-1.113 0-2.023-0.012-2.023-0.028 0-0.229 1.553-2.395 1.749-2.44 1.524-0.351 3.062-0.992 4.435-1.848l0.506-0.315v-1.644h1.794l0.212-0.221c1.401-1.456 2.665-4.344 3.018-6.898l0.092-0.661-0.185 0.006c-0.102 0.003-0.395 0.039-0.652 0.079zM20.279 0.59c0 0.039-0.204 0.235-0.454 0.436-2.524 2.025-8.138 7.7-9.657 9.762-0.373 0.506-0.442 0.563-0.517 0.422-0.135-0.252 1.325-1.974 4.118-4.857l1.307-1.348-0.025-1.366-0.025-1.366 0.124 0.018 0.124 0.017 0.026 1.176c0.014 0.647 0.041 1.191 0.060 1.21s0.363-0.286 0.765-0.677l0.731-0.711v-1.958h0.259v1.718l0.688-0.639c1.732-1.607 2.476-2.159 2.476-1.838zM33.093 13.697c-0.098 0.060-0.471 0.376-0.83 0.703s-0.86 0.739-1.115 0.916c-0.687 0.478-0.785 0.57-0.69 0.649 0.065 0.054 0.136 0.020 0.423-0.2 0.513-0.393 0.82-0.534 1.083-0.497 0.119 0.017 0.275 0.038 0.346 0.048s0.229 0.083 0.349 0.163c0.214 0.142 0.23 0.144 0.715 0.108 0.359-0.027 0.516-0.020 0.571 0.026 0.042 0.035 0.151 0.051 0.245 0.037s0.286 0.005 0.428 0.042c0.142 0.037 0.318 0.066 0.389 0.066s0.468 0.017 0.882 0.037c0.709 0.036 0.783 0.030 1.291-0.099 0.297-0.075 0.652-0.137 0.789-0.137 0.313 0 0.768-0.167 0.932-0.342 0.153-0.163 0.419-0.28 0.637-0.281 0.691-0.003 1.705-0.622 1.844-1.125 0.093-0.337-0.225-0.295-0.431 0.057-0.392 0.67-0.705 0.784-2.132 0.783-1.888-0.002-4.965-0.555-5.377-0.967-0.119-0.119-0.134-0.118-0.35 0.013zM95.382 13.697c-0.097 0.060-0.471 0.376-0.83 0.703s-0.861 0.739-1.115 0.916c-0.687 0.478-0.785 0.57-0.69 0.649 0.065 0.054 0.136 0.020 0.423-0.2 0.513-0.393 0.82-0.534 1.084-0.497 0.119 0.017 0.275 0.038 0.346 0.048s0.229 0.083 0.349 0.163c0.214 0.142 0.23 0.144 0.714 0.108 0.359-0.027 0.516-0.020 0.571 0.026 0.042 0.035 0.151 0.051 0.245 0.037s0.286 0.005 0.428 0.042c0.143 0.037 0.318 0.066 0.389 0.066s0.468 0.017 0.882 0.037c0.709 0.036 0.783 0.030 1.291-0.099 0.297-0.075 0.652-0.137 0.789-0.137 0.313 0 0.768-0.167 0.932-0.342 0.152-0.163 0.419-0.28 0.637-0.281 0.691-0.003 1.705-0.622 1.844-1.125 0.093-0.337-0.225-0.295-0.431 0.057-0.392 0.67-0.705 0.784-2.133 0.783-1.888-0.002-4.965-0.555-5.377-0.967-0.119-0.119-0.133-0.118-0.35 0.013zM60.956 17.034c-0.234 0.126-0.695 0.403-1.025 0.617s-0.781 0.478-1.001 0.588c-0.221 0.109-0.41 0.204-0.422 0.211-0.104 0.060 0.145 0.169 0.327 0.143 0.211-0.031 0.213-0.030 0.299 0.192 0.101 0.259 0.173 0.564 0.151 0.639-0.008 0.029-0.025 0.274-0.036 0.544-0.030 0.689-0.143 0.818-1.096 1.247-0.527 0.237-0.543 0.271-0.2 0.439 0.204 0.1 0.327 0.13 0.435 0.106 0.103-0.023 0.171-0.008 0.215 0.045s0.114 0.068 0.216 0.048c0.175-0.035 0.192 0.026 0.080 0.3-0.116 0.287-0.139 0.604-0.046 0.639 0.069 0.027 0.067 0.044-0.014 0.133-0.051 0.057-0.079 0.117-0.062 0.134s-0.034 0.21-0.114 0.428c-0.080 0.218-0.136 0.422-0.124 0.454s-0.016 0.087-0.059 0.123c-0.084 0.070-0.111 0.365-0.033 0.365 0.061 0-0.316 1.192-0.447 1.413-0.186 0.316-0.192 0.558-0.013 0.558 0.114 0 0.17-0.037 0.229-0.152 0.043-0.084 0.121-0.165 0.173-0.182s0.151-0.102 0.221-0.191c0.070-0.088 0.184-0.211 0.253-0.272s0.256-0.238 0.415-0.392c0.159-0.154 0.417-0.346 0.575-0.426 0.295-0.15 0.667-0.484 0.606-0.545-0.019-0.019-0.173 0.051-0.341 0.155s-0.327 0.189-0.351 0.189c-0.024 0 0.029-0.045 0.119-0.099 0.193-0.118 0.269-0.223 0.183-0.252-0.104-0.034-0.071-0.261 0.043-0.297 0.062-0.020 0.104-0.079 0.104-0.146 0.001-0.348 0.113-1.307 0.159-1.362 0.037-0.044 0.036-0.075-0.003-0.099-0.038-0.024-0.023-0.088 0.047-0.199 0.118-0.187 0.258-0.225 1.002-0.276 0.513-0.035 0.636-0.106 0.479-0.28-0.133-0.147-0.061-0.188 0.429-0.242l0.427-0.047-0.098 0.106c-0.067 0.073-0.096 0.176-0.091 0.327 0.005 0.173-0.018 0.237-0.107 0.3-0.063 0.044-0.139 0.179-0.169 0.299s-0.076 0.257-0.103 0.304c-0.030 0.053-0.028 0.159 0.006 0.279 0.033 0.119 0.035 0.206 0.005 0.226-0.045 0.030-0.107 0.367-0.143 0.784-0.009 0.1-0.041 0.275-0.071 0.389-0.085 0.32-0.075 0.7 0.020 0.7 0.1 0 0.098 0.058-0.011 0.287-0.096 0.201-0.052 0.281 0.154 0.283 0.111 0.001 0.119 0.121 0.013 0.208-0.136 0.113-0.095 0.282 0.086 0.351 0.184 0.069 0.978-0.433 1.582-0.999 0.386-0.362 0.345-0.332 1.086-0.815 0.824-0.538 1.318-0.942 1.318-1.080 0-0.134-0.006-0.132-0.24 0.084-0.483 0.447-1.558 1.162-1.748 1.162-0.039 0-0.139-0.314-0.139-0.438 0-0.061-0.047-0.202-0.104-0.314-0.144-0.282-0.137-0.51 0.054-1.789 0.152-1.018 0.136-0.98 0.479-1.158l0.27-0.141-0.505 0.043 0.027-0.202c0.015-0.111 0.096-0.306 0.181-0.434 0.088-0.132 0.168-0.338 0.187-0.48 0.022-0.157 0.119-0.389 0.266-0.633 0.128-0.212 0.247-0.469 0.266-0.571s0.086-0.255 0.15-0.341c0.064-0.085 0.154-0.231 0.201-0.323s0.155-0.247 0.24-0.344l0.155-0.177-0.133-0.033c-0.090-0.022-0.178-0.001-0.273 0.065-0.077 0.054-0.28 0.169-0.451 0.255s-0.409 0.264-0.529 0.396c-0.119 0.131-0.241 0.239-0.27 0.239s-0.151 0.146-0.272 0.324c-0.121 0.178-0.261 0.355-0.313 0.392s-0.094 0.101-0.094 0.142c0 0.041-0.047 0.122-0.104 0.179s-0.091 0.104-0.075 0.104c0.016 0-0.007 0.051-0.051 0.113-0.056 0.080-0.063 0.132-0.025 0.178 0.039 0.048 0.017 0.089-0.084 0.156-0.116 0.076-0.134 0.118-0.111 0.259 0.021 0.131-0.006 0.212-0.123 0.367-0.083 0.109-0.151 0.249-0.152 0.311-0.002 0.181-0.148 0.291-0.334 0.252-0.537-0.113-1.028-0.183-1.285-0.183-0.162-0-0.358-0.024-0.436-0.054l-0.141-0.054 0.108-0.1c0.128-0.119 0.265-0.685 0.173-0.715-0.063-0.021-0.076-0.162-0.028-0.288 0.017-0.043 0.064-0.066 0.104-0.050 0.058 0.022 0.074-0.037 0.074-0.289 0-0.184 0.022-0.316 0.054-0.316 0.033 0 0.043-0.089 0.026-0.234-0.026-0.213-0.016-0.24 0.102-0.294 0.135-0.062 0.17-0.167 0.076-0.226-0.033-0.021-0.036-0.057-0.007-0.094 0.071-0.091 0.113-0.443 0.057-0.478-0.060-0.037-0.004-0.539 0.070-0.633 0.106-0.134-0.148-0.060-0.568 0.165zM56.065 17.11c-0.165 0.084-0.492 0.183-0.777 0.234-0.304 0.055-0.818 0.213-1.349 0.417-1.211 0.464-2.010 0.715-2.296 0.722-0.218 0.006-0.246 0.020-0.246 0.122-0.001 0.226 0.475 0.195 0.989-0.066 0.296-0.15 0.3-0.145 0.121 0.14-0.227 0.36-0.591 1.144-0.591 1.273 0 0.067-0.031 0.134-0.070 0.149-0.049 0.019-0.064 0.098-0.049 0.271 0.013 0.147-0.019 0.388-0.080 0.607-0.198 0.705-0.33 1.142-0.386 1.271-0.031 0.071-0.062 0.181-0.069 0.244s-0.038 0.16-0.068 0.217c-0.030 0.057-0.055 0.186-0.055 0.288s-0.023 0.185-0.052 0.185c-0.028 0-0.052 0.061-0.052 0.135s-0.035 0.196-0.077 0.272c-0.042 0.076-0.128 0.278-0.189 0.449-0.244 0.677-0.642 0.893-0.996 0.539l-0.213-0.213 0.141-0.074c0.131-0.068 0.193-0.174 0.102-0.175-0.074-0.001-0.558 0.181-0.587 0.221-0.051 0.069-0.951 0.452-1.065 0.453-0.424 0.003-0.532-1.423-0.175-2.307 0.063-0.156 0.112-0.388 0.135-0.644 0.011-0.126 0.080-0.429 0.153-0.674s0.178-0.604 0.233-0.798c0.055-0.194 0.17-0.483 0.255-0.643s0.155-0.351 0.156-0.425c0.001-0.074 0.036-0.181 0.078-0.236s0.076-0.165 0.076-0.243 0.020-0.155 0.045-0.171c0.025-0.015 0.073-0.139 0.107-0.275s0.12-0.337 0.192-0.447c0.107-0.163 0.278-0.555 0.278-0.637 0-0.107-0.314 0.030-0.606 0.265-0.206 0.166-0.405 0.285-0.478 0.285-0.157 0.001-0.736 0.271-1.042 0.487-0.128 0.090-0.338 0.209-0.467 0.265-0.475 0.204-0.538 0.278-0.383 0.449 0.142 0.157 0.026 1.023-0.194 1.45-0.094 0.182-0.22 0.448-0.28 0.591s-0.231 0.443-0.379 0.668c-0.294 0.447-0.308 0.487-0.186 0.534 0.128 0.049 0.426-0.119 0.54-0.307 0.057-0.093 0.105-0.158 0.107-0.143 0.030 0.193 0.020 0.611-0.016 0.658-0.028 0.037-0.026 0.135 0.004 0.246s0.032 0.185 0.004 0.185c-0.026 0-0.048 0.029-0.048 0.065s-0.082 0.201-0.182 0.367c-0.1 0.166-0.168 0.324-0.152 0.351s0.003 0.133-0.031 0.236c-0.048 0.147-0.048 0.195 0.003 0.227 0.099 0.061 0.019 0.401-0.104 0.44-0.124 0.039-0.104 0.328 0.030 0.426 0.064 0.046 0.073 0.082 0.033 0.131-0.082 0.1-0.002 0.713 0.121 0.924 0.211 0.363 1.050 0.050 1.692-0.631 0.077-0.081 0.184-0.148 0.239-0.148 0.185 0 0.402-0.105 0.452-0.22 0.031-0.070 0.129-0.137 0.253-0.171 0.111-0.031 0.269-0.123 0.35-0.204s0.16-0.137 0.174-0.123c0.055 0.055 0.118 0.694 0.073 0.741-0.052 0.055-0.064 0.649-0.015 0.776 0.154 0.402 1.273-0.825 1.936-2.122 0.073-0.143 0.205-0.365 0.294-0.493 0.307-0.443 0.492-0.876 0.532-1.243 0.029-0.267 0.070-0.388 0.173-0.511 0.075-0.089 0.165-0.25 0.2-0.357s0.138-0.269 0.228-0.357c0.126-0.125 0.192-0.266 0.283-0.612 0.068-0.256 0.172-0.513 0.241-0.596 0.068-0.080 0.11-0.159 0.094-0.174s0.020-0.044 0.080-0.063c0.112-0.036 0.254-0.274 0.363-0.611 0.087-0.268 0.367-0.557 0.541-0.557h0.137l-0.158 0.28c-0.111 0.198-0.149 0.318-0.126 0.409 0.023 0.094 0.001 0.158-0.083 0.236-0.092 0.086-0.109 0.144-0.085 0.293 0.025 0.153 0.005 0.214-0.115 0.352-0.14 0.162-0.203 0.42-0.233 0.957-0.005 0.092-0.038 0.196-0.072 0.231-0.074 0.074-0.084 0.466-0.015 0.538 0.030 0.030 0.007 0.138-0.059 0.283-0.129 0.28-0.198 0.753-0.227 1.549-0.012 0.325-0.043 0.675-0.069 0.778-0.058 0.229-0.001 0.624 0.117 0.804 0.048 0.073 0.086 0.204 0.086 0.292 0 0.771 0.925 0.891 1.729 0.224 0.167-0.138 0.449-0.356 0.627-0.485 1.059-0.764 1.726-1.504 1.357-1.504-0.218 0-0.28 0.051-0.657 0.547-0.92 1.208-1.574 0.265-1.194-1.721 0.060-0.315 0.11-0.68 0.11-0.812s0.021-0.293 0.048-0.358c0.026-0.065 0.11-0.399 0.187-0.741 0.184-0.82 0.531-1.936 0.882-2.836 0.156-0.4 0.284-0.737 0.284-0.748 0-0.069-0.327 0.006-0.571 0.13zM9.995 17.178c0.304 0.283 0.4 1.161 0.216 1.96-0.030 0.128-0.060 0.583-0.068 1.011s-0.038 0.889-0.067 1.024c-0.040 0.187-0.037 0.267 0.014 0.337 0.081 0.111 0.042 0.56-0.062 0.712-0.039 0.056-0.070 0.166-0.070 0.243s-0.025 0.156-0.056 0.175c-0.036 0.022-0.020 0.074 0.048 0.146 0.116 0.125 0.282 0.646 0.262 0.824-0.022 0.199 0.119 0.576 0.278 0.747l0.152 0.163-0.226 0.129c-0.124 0.071-0.275 0.144-0.335 0.162-0.156 0.046-0.353 0.264-0.201 0.222 0.057-0.016 0.244-0.044 0.415-0.062 0.188-0.021 0.383-0.081 0.494-0.152 0.304-0.198 0.397-0.209 0.427-0.054 0.036 0.191-0.135 0.285-0.622 0.34-0.68 0.076-0.968 0.175-1.175 0.405-0.105 0.116-0.29 0.149-0.29 0.052 0-0.085-0.252-0.010-0.47 0.139-0.2 0.137-0.523 0.182-0.42 0.058 0.031-0.038 0.231-0.147 0.444-0.244l0.386-0.175-0.018-0.392c-0.010-0.215-0.041-0.543-0.069-0.729s-0.053-0.86-0.055-1.5c-0.003-0.639-0.013-1.171-0.024-1.181s-0.133 0.185-0.272 0.434c-0.168 0.301-0.393 0.596-0.668 0.879-0.556 0.571-0.804 0.869-0.804 0.968 0 0.045-0.023 0.097-0.052 0.114-0.034 0.021-0.033 0.068 0.004 0.138 0.063 0.118-0.241 0.539-0.463 0.64-0.062 0.028-0.126 0.094-0.143 0.145-0.045 0.14-0.442 0.414-0.508 0.349-0.029-0.029-0.061-0.257-0.071-0.507s-0.043-0.532-0.074-0.628-0.063-0.423-0.072-0.726c-0.009-0.304-0.029-0.587-0.044-0.629s-0.025-0.136-0.022-0.207c0.003-0.071-0.013-0.264-0.035-0.427-0.027-0.197-0.021-0.321 0.016-0.366 0.060-0.073-0.020-0.475-0.139-0.697-0.033-0.061-0.060-0.188-0.060-0.283-0.001-0.215-0.228 0.231-0.29 0.567-0.020 0.107-0.111 0.346-0.204 0.531s-0.196 0.442-0.23 0.571-0.116 0.339-0.181 0.467c-0.065 0.128-0.135 0.357-0.154 0.508s-0.067 0.35-0.106 0.441c-0.039 0.091-0.091 0.306-0.114 0.477-0.042 0.306-0.046 0.311-0.228 0.34-0.102 0.016-0.232 0.075-0.29 0.13s-0.146 0.124-0.195 0.152c-0.070 0.040-0.029 0.056 0.186 0.070 0.772 0.051 0.822 0.044 0.956-0.122 0.105-0.13 0.134-0.143 0.176-0.078 0.079 0.122 0.061 0.259-0.039 0.295-0.050 0.018-0.145 0.075-0.211 0.125-0.103 0.079-0.202 0.089-0.707 0.070l-0.587-0.022-0.198 0.157c-0.235 0.187-0.406 0.186-0.424-0.003-0.016-0.162 0.065-0.262 0.302-0.371 0.341-0.158 1.47-2.443 1.649-3.338 0.086-0.428 0.358-1.488 0.445-1.731 0.164-0.457-0.118-0.975-0.44-0.809-0.21 0.109-0.302 0.095-0.339-0.050-0.045-0.177 0.008-0.236 0.21-0.236 0.226 0 0.945-0.255 1.648-0.584 0.622-0.291 0.656-0.289 0.567 0.042-0.034 0.128-0.062 0.386-0.062 0.572s-0.023 0.383-0.051 0.435c-0.037 0.070-0.026 0.127 0.046 0.218 0.081 0.103 0.097 0.217 0.098 0.694 0.001 0.314 0.026 0.792 0.056 1.063s0.049 0.627 0.042 0.793c-0.007 0.166 0.011 0.318 0.041 0.337s0.058 0.117 0.064 0.217c0.027 0.464 0.083 0.882 0.117 0.882 0.14 0 0.821-0.931 1.27-1.737 0.191-0.342 0.38-0.659 0.421-0.704s0.075-0.127 0.076-0.182c0.001-0.055 0.036-0.145 0.078-0.2 0.099-0.131 0.099-0.89-0.001-1.248-0.040-0.142-0.074-0.24-0.076-0.217s-0.033 0.024-0.068 0.001c-0.036-0.022-0.117-0.034-0.182-0.025-0.241 0.031-0.102-0.154 0.2-0.265 0.097-0.036 0.452-0.247 0.79-0.47l0.614-0.405-0.035-0.189c-0.071-0.38-0.373-0.737-0.623-0.737-0.161 0-0.285-0.050-0.285-0.116 0-0.098 0.636 0.008 0.763 0.127zM28.447 17.277c-0.171 0.114-0.369 0.22-0.441 0.235-0.438 0.092-2.634 1.686-2.855 2.071-0.088 0.154-0.181 0.292-0.206 0.308-0.065 0.040-0.341 0.456-0.507 0.764-0.078 0.144-0.17 0.311-0.205 0.371s-0.064 0.154-0.065 0.209c-0 0.055-0.032 0.137-0.069 0.182s-0.099 0.187-0.135 0.315c-0.037 0.128-0.098 0.294-0.137 0.368-0.231 0.44-0.269 2.543-0.053 2.874 0.060 0.092 0.076 0.186 0.053 0.31-0.037 0.195 0.208 0.419 0.405 0.37 0.102-0.025 0.136 0.204 0.035 0.237-0.033 0.011-0.011 0.076 0.053 0.156 0.172 0.218 0.599 0.253 0.905 0.073 0.127-0.074 0.259-0.135 0.292-0.135 0.069 0 0.361-0.298 0.361-0.369 0-0.026 0.035-0.046 0.077-0.046s0.137-0.090 0.209-0.199c0.084-0.128 0.224-0.243 0.389-0.32 0.141-0.066 0.269-0.159 0.284-0.206s0.109-0.125 0.209-0.173c0.207-0.099 1.062-0.899 1.062-0.994 0-0.034-0.096-0.091-0.213-0.126s-0.245-0.076-0.285-0.091c-0.054-0.021-0.072 0.022-0.073 0.172-0 0.278-0.524 0.956-0.733 0.95-0.126-0.004-0.412-0.183-0.475-0.297-0.034-0.062-0.127-0.203-0.206-0.314s-0.158-0.293-0.174-0.403c-0.016-0.111-0.074-0.297-0.128-0.412-0.459-0.987 0.501-4.35 1.377-4.822l0.172-0.093 0.33 0.351c0.603 0.642 0.673 0.873 0.434 1.452-0.134 0.326-0.125 0.447 0.018 0.245 0.047-0.067 0.173-0.218 0.281-0.337 0.295-0.326 0.424-0.733 0.555-1.746 0.024-0.185 0.079-0.485 0.123-0.666 0.134-0.555-0.093-0.644-0.666-0.262zM32.657 17.19c-0.109 0.039-0.413 0.201-0.675 0.359s-0.555 0.316-0.649 0.349-0.289 0.139-0.431 0.234c-0.142 0.096-0.415 0.257-0.605 0.358-0.635 0.337-0.706 0.508-0.19 0.455 0.332-0.034 0.505 0.055 0.874 0.449 0.285 0.305 0.285 0.302 0.084 0.654-0.207 0.361-0.298 1.362-0.15 1.639 0.046 0.086 0.038 0.108-0.052 0.132-0.059 0.015-0.108 0.066-0.108 0.113s-0.070 0.222-0.156 0.39c-0.128 0.252-0.155 0.369-0.155 0.665 0 0.198-0.028 0.41-0.062 0.473s-0.068 0.241-0.074 0.398c-0.019 0.449-0.113 0.866-0.26 1.147-0.074 0.142-0.147 0.363-0.161 0.492-0.022 0.194-0.058 0.257-0.214 0.371-0.843 0.616-0.475 0.721 0.83 0.239 0.274-0.101 0.869-0.281 1.322-0.4 0.605-0.158 0.828-0.238 0.839-0.3 0.023-0.121-0.13-0.253-0.291-0.252-0.076 0.001-0.227-0.013-0.335-0.031-0.185-0.030-0.214-0.015-0.503 0.26-0.349 0.333-0.66 0.494-0.956 0.496l-0.204 0.001 0.567-0.388c0.772-0.527 1.064-0.792 1.089-0.987 0.024-0.192 0.102-0.597 0.174-0.908 0.030-0.128 0.115-0.607 0.19-1.063s0.159-0.858 0.186-0.891c0.027-0.034 0.104-0.273 0.169-0.532 0.211-0.831 1.517-2.271 1.803-1.986 0.095 0.095 0.19 0.619 0.147 0.809-0.022 0.099-0.020 0.2 0.005 0.225 0.026 0.026 0.003 0.21-0.055 0.432-0.172 0.659-0.272 1.204-0.245 1.343 0.014 0.073-0.011 0.214-0.055 0.314-0.090 0.204-0.149 0.505-0.217 1.115-0.025 0.228-0.060 0.473-0.076 0.544s-0.041 0.395-0.055 0.72c-0.018 0.444-0.045 0.613-0.108 0.682-0.082 0.090-0.257 0.718-0.212 0.762 0.061 0.062 1.1-0.648 1.154-0.788 0.014-0.037 0.223-0.212 0.464-0.39s0.451-0.344 0.468-0.372c0.033-0.053 0.037-0.089 0.127-1.095 0.063-0.708 0.12-0.98 0.332-1.594 0.074-0.214 0.147-0.482 0.162-0.596 0.154-1.144 1.663-2.77 1.995-2.149 0.088 0.165 0.031 1.299-0.073 1.457-0.117 0.178-0.167 0.796-0.078 0.962 0.063 0.117 0.058 0.139-0.047 0.224-0.2 0.162-0.392 0.869-0.378 1.393 0.005 0.189-0.019 0.308-0.074 0.369-0.045 0.050-0.079 0.169-0.077 0.265s-0.011 0.24-0.030 0.32c-0.024 0.101-0.009 0.173 0.051 0.24 0.081 0.090 0.078 0.105-0.054 0.262l-0.14 0.166 0.11 0.227c0.065 0.134 0.090 0.24 0.060 0.258-0.086 0.053-0.055 0.264 0.053 0.362 0.112 0.101 0.137 0.283 0.050 0.37-0.095 0.096 0.083 0.189 0.299 0.156 0.107-0.016 0.354-0.051 0.547-0.077 0.378-0.051 0.475-0.111 0.719-0.444 0.131-0.179 0.208-0.222 0.668-0.371 0.485-0.158 0.88-0.378 0.88-0.492 0-0.062-0.17-0.065-0.236-0.004-0.268 0.246-0.761 0.022-0.856-0.39-0.062-0.268-0.059-1.289 0.004-1.549 0.127-0.517 0.31-1.467 0.31-1.61 0-0.087 0.023-0.181 0.051-0.21s0.078-0.191 0.109-0.36c0.031-0.17 0.075-0.332 0.097-0.361s0.042-0.126 0.044-0.217c0.002-0.091 0.027-0.21 0.056-0.264 0.126-0.235 0.233-0.892 0.236-1.454l0.003-0.587-0.175-0.157c-0.428-0.383-2.067 0.426-3.341 1.65-0.195 0.187-0.36 0.332-0.367 0.322-0.102-0.151-0.108-0.283-0.020-0.461 0.055-0.111 0.099-0.315 0.101-0.472 0.003-0.153 0.022-0.313 0.044-0.355 0.108-0.216-0.101-0.866-0.294-0.914-0.15-0.038-1.126 0.421-1.494 0.702-0.144 0.11-0.343 0.24-0.443 0.29-0.384 0.192-1.349 1.081-1.349 1.242 0 0.111-0.088 0.235-0.166 0.235-0.058 0-0.051-0.4 0.012-0.732 0.030-0.154 0.077-0.582 0.105-0.953 0.075-0.977-0.044-1.151-0.642-0.937zM94.946 17.19c-0.109 0.039-0.413 0.201-0.675 0.359s-0.555 0.316-0.649 0.349c-0.095 0.033-0.289 0.139-0.431 0.234s-0.414 0.257-0.604 0.358c-0.635 0.337-0.706 0.508-0.19 0.455 0.332-0.034 0.506 0.055 0.875 0.449 0.285 0.305 0.285 0.302 0.084 0.654-0.207 0.361-0.298 1.362-0.15 1.639 0.046 0.086 0.037 0.108-0.052 0.132-0.059 0.015-0.108 0.066-0.108 0.113s-0.070 0.222-0.156 0.39c-0.128 0.252-0.155 0.369-0.155 0.665 0 0.198-0.028 0.41-0.063 0.473s-0.068 0.241-0.074 0.398c-0.018 0.449-0.113 0.866-0.26 1.147-0.074 0.142-0.147 0.363-0.161 0.492-0.022 0.194-0.058 0.257-0.214 0.371-0.843 0.616-0.476 0.721 0.83 0.239 0.274-0.101 0.869-0.281 1.322-0.4 0.605-0.158 0.827-0.238 0.839-0.3 0.023-0.121-0.13-0.253-0.292-0.252-0.076 0.001-0.227-0.013-0.335-0.031-0.185-0.030-0.214-0.015-0.503 0.26-0.349 0.333-0.66 0.494-0.956 0.496l-0.204 0.001 0.567-0.388c0.772-0.527 1.064-0.792 1.089-0.987 0.024-0.192 0.102-0.597 0.174-0.908 0.030-0.128 0.115-0.607 0.19-1.063s0.159-0.858 0.186-0.891c0.028-0.034 0.104-0.273 0.17-0.532 0.211-0.831 1.517-2.271 1.802-1.986 0.095 0.095 0.191 0.619 0.147 0.809-0.022 0.099-0.020 0.2 0.005 0.225 0.026 0.026 0.003 0.21-0.055 0.432-0.172 0.659-0.272 1.204-0.245 1.343 0.014 0.073-0.011 0.214-0.055 0.314-0.090 0.204-0.149 0.505-0.217 1.115-0.025 0.228-0.060 0.473-0.076 0.544s-0.041 0.395-0.054 0.72c-0.018 0.444-0.045 0.613-0.108 0.682-0.081 0.090-0.256 0.718-0.212 0.762 0.062 0.062 1.1-0.648 1.154-0.788 0.014-0.037 0.223-0.212 0.464-0.39s0.451-0.344 0.468-0.372c0.033-0.053 0.037-0.089 0.127-1.095 0.064-0.708 0.12-0.98 0.332-1.594 0.074-0.214 0.147-0.482 0.162-0.596 0.154-1.144 1.663-2.77 1.995-2.149 0.088 0.165 0.031 1.299-0.074 1.457-0.117 0.178-0.167 0.796-0.078 0.962 0.062 0.117 0.058 0.139-0.047 0.224-0.2 0.162-0.392 0.869-0.378 1.393 0.005 0.189-0.019 0.308-0.074 0.369-0.044 0.050-0.079 0.169-0.076 0.265s-0.011 0.24-0.031 0.32c-0.024 0.101-0.009 0.173 0.051 0.24 0.081 0.090 0.078 0.105-0.054 0.262l-0.14 0.166 0.11 0.227c0.065 0.134 0.090 0.24 0.060 0.258-0.086 0.053-0.055 0.264 0.053 0.362 0.112 0.101 0.137 0.283 0.050 0.37-0.095 0.096 0.083 0.189 0.3 0.156 0.107-0.016 0.354-0.051 0.547-0.077 0.378-0.051 0.475-0.111 0.719-0.444 0.131-0.179 0.208-0.222 0.668-0.371 0.485-0.158 0.88-0.378 0.88-0.492 0-0.062-0.17-0.065-0.236-0.004-0.268 0.246-0.76 0.022-0.856-0.39-0.062-0.268-0.059-1.289 0.004-1.549 0.127-0.517 0.309-1.467 0.309-1.61 0-0.087 0.023-0.181 0.052-0.21s0.077-0.191 0.109-0.36c0.031-0.17 0.075-0.332 0.097-0.361s0.042-0.126 0.043-0.217c0.002-0.091 0.027-0.21 0.056-0.264 0.126-0.235 0.233-0.892 0.236-1.454l0.004-0.587-0.175-0.157c-0.428-0.383-2.067 0.426-3.341 1.65-0.195 0.187-0.36 0.332-0.367 0.322-0.102-0.151-0.108-0.283-0.020-0.461 0.055-0.111 0.098-0.315 0.101-0.472 0.003-0.153 0.022-0.313 0.044-0.355 0.108-0.216-0.101-0.866-0.295-0.914-0.149-0.038-1.126 0.421-1.494 0.702-0.144 0.11-0.343 0.24-0.443 0.29-0.384 0.192-1.348 1.081-1.348 1.242 0 0.111-0.088 0.235-0.166 0.235-0.058 0-0.052-0.4 0.012-0.732 0.029-0.154 0.077-0.582 0.105-0.953 0.075-0.977-0.043-1.151-0.642-0.937zM45.004 17.347c-0.164 0.068-0.643 0.341-1.063 0.605s-0.904 0.537-1.076 0.605c-0.519 0.207-0.582 0.425-0.123 0.425 0.207 0 0.233 0.025 0.153 0.151-0.030 0.047-0.021 0.113 0.024 0.182 0.125 0.191 0.022 1.405-0.148 1.753-0.084 0.173-0.124 0.321-0.105 0.394 0.018 0.070-0.001 0.152-0.050 0.206-0.059 0.066-0.080 0.209-0.081 0.555-0.001 0.446-0.007 0.471-0.144 0.58-0.131 0.104-0.137 0.126-0.078 0.256 0.056 0.123 0.051 0.161-0.040 0.284-0.078 0.105-0.108 0.234-0.116 0.497-0.006 0.195-0.044 0.422-0.085 0.505-0.13 0.262-0.182 0.819-0.098 1.060 0.081 0.236 0.069 0.267-0.101 0.267-0.138 0-0.211 0.090-0.135 0.165 0.034 0.034 0.036 0.111 0.006 0.215-0.067 0.233-0.063 0.241 0.111 0.241 0.532 0 2.085-1.278 2.465-2.028 0.071-0.14 0.146-0.254 0.168-0.254s0.084-0.083 0.139-0.185c0.055-0.102 0.142-0.208 0.193-0.235s0.094-0.101 0.094-0.163c0-0.067 0.111-0.225 0.27-0.386 0.244-0.247 0.265-0.287 0.22-0.412-0.080-0.228-0.153-0.195-0.361 0.162-0.202 0.346-0.789 0.961-0.915 0.96-0.163-0.002-0.193-0.071-0.131-0.302 0.051-0.191 0.048-0.231-0.021-0.269s-0.048-0.11 0.146-0.501c0.155-0.312 0.243-0.569 0.277-0.814 0.028-0.197 0.12-0.566 0.205-0.82s0.155-0.517 0.155-0.585 0.023-0.138 0.052-0.156c0.033-0.021 0.024-0.072-0.024-0.142-0.069-0.099-0.067-0.116 0.025-0.181 0.076-0.053 0.102-0.132 0.102-0.303 0-0.165 0.058-0.347 0.2-0.632 0.261-0.522 0.318-0.91 0.16-1.078l-0.112-0.119 0.161-0.083c0.115-0.059 0.161-0.12 0.161-0.212 0-0.088 0.042-0.149 0.13-0.189 0.395-0.18-0.179-0.197-0.61-0.018zM69.276 17.347c-0.164 0.068-0.643 0.341-1.063 0.605s-0.904 0.537-1.076 0.605c-0.519 0.207-0.582 0.425-0.123 0.425 0.207 0 0.233 0.025 0.153 0.151-0.030 0.047-0.021 0.113 0.024 0.182 0.125 0.191 0.022 1.405-0.148 1.753-0.085 0.173-0.124 0.321-0.105 0.394 0.018 0.070-0.001 0.152-0.050 0.206-0.059 0.066-0.080 0.209-0.081 0.555-0.001 0.446-0.007 0.471-0.144 0.58-0.131 0.104-0.137 0.126-0.078 0.256 0.056 0.123 0.051 0.161-0.040 0.284-0.078 0.105-0.108 0.234-0.116 0.497-0.006 0.195-0.044 0.422-0.085 0.505-0.13 0.262-0.182 0.819-0.098 1.060 0.081 0.236 0.069 0.267-0.101 0.267-0.138 0-0.211 0.090-0.135 0.165 0.034 0.034 0.036 0.111 0.006 0.215-0.067 0.233-0.063 0.241 0.111 0.241 0.532 0 2.085-1.278 2.465-2.028 0.070-0.14 0.146-0.254 0.168-0.254s0.084-0.083 0.139-0.185c0.055-0.102 0.142-0.208 0.193-0.235s0.094-0.101 0.094-0.163c0-0.067 0.111-0.225 0.27-0.386 0.244-0.247 0.265-0.287 0.22-0.412-0.080-0.228-0.153-0.195-0.362 0.162-0.202 0.346-0.789 0.961-0.915 0.96-0.163-0.002-0.193-0.071-0.131-0.302 0.051-0.191 0.048-0.231-0.021-0.269s-0.048-0.11 0.146-0.501c0.155-0.312 0.243-0.569 0.277-0.814 0.028-0.197 0.12-0.566 0.205-0.82s0.155-0.517 0.155-0.585 0.023-0.138 0.052-0.156c0.033-0.021 0.024-0.072-0.024-0.142-0.069-0.099-0.067-0.116 0.025-0.181 0.076-0.053 0.102-0.132 0.102-0.303 0-0.165 0.058-0.347 0.2-0.632 0.26-0.522 0.318-0.91 0.16-1.078l-0.112-0.119 0.161-0.083c0.115-0.059 0.161-0.12 0.161-0.212 0-0.088 0.042-0.149 0.13-0.189 0.395-0.18-0.179-0.197-0.61-0.018zM20.73 17.369c-0.106 0.054-0.206 0.078-0.221 0.052-0.043-0.069-0.138-0.056-0.114 0.016 0.011 0.035-0.268 0.244-0.631 0.472-1.187 0.746-1.956 1.378-2.17 1.784-0.065 0.123-0.292 0.391-0.505 0.597-0.354 0.342-0.381 0.383-0.319 0.477 0.059 0.089 0.053 0.126-0.045 0.271-0.062 0.092-0.142 0.315-0.177 0.496s-0.094 0.376-0.131 0.434c-0.037 0.058-0.081 0.222-0.098 0.363-0.058 0.508-0.098 0.724-0.141 0.779-0.024 0.030-0.054 0.357-0.067 0.726-0.013 0.404-0.066 0.877-0.133 1.188-0.061 0.284-0.1 0.544-0.087 0.578s-0.045 0.126-0.129 0.206c-0.162 0.155-0.19 0.274-0.089 0.375 0.184 0.184 0.668-0.044 1.111-0.523 0.137-0.149 0.346-0.317 0.463-0.374 0.319-0.155 0.957-0.87 0.957-1.073 0-0.211 0.086-0.347 1.024-1.608 0.438-0.59 0.877-1.232 0.975-1.426 0.167-0.331 0.176-0.34 0.145-0.146-0.018 0.114-0.055 0.222-0.083 0.24s-0.034 0.104-0.015 0.191c0.031 0.141 0.017 0.168-0.124 0.241-0.174 0.090-0.19 0.136-0.099 0.281 0.049 0.078 0.039 0.126-0.052 0.254-0.103 0.145-0.133 0.292-0.185 0.899-0.009 0.103-0.031 0.212-0.050 0.243s-0.005 0.118 0.030 0.194c0.058 0.128 0.051 0.15-0.083 0.257-0.141 0.112-0.144 0.124-0.078 0.306 0.063 0.175 0.060 0.194-0.046 0.269-0.124 0.087-0.149 0.227-0.057 0.319 0.043 0.043 0.034 0.121-0.033 0.297-0.082 0.214-0.083 0.248-0.012 0.328 0.053 0.060 0.065 0.125 0.037 0.194-0.062 0.153-0.058 0.167 0.046 0.194 0.058 0.015 0.109 0.092 0.13 0.194 0.032 0.16 0.043 0.167 0.202 0.131 0.093-0.021 0.262-0.056 0.376-0.079 0.164-0.032 0.273-0.112 0.518-0.378 0.248-0.268 0.412-0.387 0.804-0.583 0.776-0.387 1.309-0.783 1.601-1.189 0.191-0.266 0.196-0.288 0.064-0.288-0.187 0-0.268 0.065-0.394 0.312-0.22 0.434-1.003 0.889-1.171 0.68-0.336-0.415-0.078-2.807 0.499-4.623 0.095-0.299 0.211-0.673 0.258-0.83s0.137-0.367 0.202-0.467 0.133-0.243 0.151-0.318c0.019-0.076 0.137-0.213 0.266-0.311 0.128-0.096 0.245-0.21 0.26-0.253s0.126-0.144 0.248-0.225l0.221-0.147-0.285 0.041c-0.447 0.065-1.085 0.042-1.434-0.051-0.446-0.119-1.083-0.113-1.33 0.013zM73.352 17.555c-0.207 0.166-0.405 0.285-0.478 0.285-0.157 0.001-0.736 0.271-1.042 0.487-0.128 0.090-0.338 0.209-0.467 0.265-0.475 0.204-0.537 0.278-0.382 0.449 0.142 0.157 0.026 1.023-0.194 1.45-0.094 0.182-0.22 0.448-0.28 0.591s-0.231 0.443-0.379 0.668c-0.294 0.447-0.308 0.487-0.186 0.534 0.128 0.049 0.426-0.119 0.54-0.307 0.057-0.093 0.105-0.158 0.107-0.143 0.030 0.193 0.020 0.611-0.016 0.658-0.028 0.037-0.026 0.135 0.004 0.246s0.032 0.185 0.004 0.185c-0.026 0-0.048 0.029-0.048 0.065s-0.082 0.201-0.182 0.367c-0.1 0.166-0.168 0.324-0.152 0.351s0.003 0.133-0.031 0.236c-0.048 0.147-0.048 0.195 0.003 0.227 0.099 0.061 0.019 0.401-0.104 0.44-0.124 0.039-0.104 0.328 0.030 0.426 0.064 0.046 0.073 0.082 0.033 0.131-0.082 0.1-0.002 0.713 0.121 0.924 0.211 0.363 1.050 0.050 1.692-0.631 0.077-0.081 0.184-0.148 0.239-0.148 0.185 0 0.402-0.105 0.452-0.22 0.031-0.070 0.129-0.136 0.251-0.17 0.11-0.030 0.259-0.113 0.33-0.183 0.132-0.128 0.272-0.212 0.675-0.405 0.208-0.1 0.294-0.215 0.159-0.215-0.034 0-0.365 0.142-0.735 0.316-1.038 0.487-1.126 0.471-1.242-0.218-0.092-0.552-0.023-1.248 0.173-1.732 0.063-0.156 0.112-0.388 0.135-0.644 0.011-0.126 0.080-0.429 0.153-0.674s0.178-0.604 0.233-0.798c0.055-0.194 0.17-0.483 0.255-0.643s0.155-0.351 0.156-0.425c0.001-0.074 0.036-0.181 0.078-0.236s0.076-0.165 0.076-0.243 0.020-0.155 0.045-0.171c0.025-0.015 0.073-0.139 0.107-0.275s0.12-0.337 0.192-0.447c0.107-0.163 0.278-0.555 0.278-0.637 0-0.107-0.314 0.030-0.606 0.265zM77.197 17.382c-0.113 0.062-0.328 0.176-0.477 0.255-1.34 0.709-2.503 1.432-2.503 1.556 0 0.088 0.425 0.050 0.592-0.053 0.202-0.125 0.524-0.043 0.628 0.16 0.157 0.305 0.136 0.514-0.173 1.694-0.078 0.297-0.088 0.431-0.050 0.623 0.041 0.209 0.029 0.301-0.086 0.629-0.074 0.211-0.134 0.453-0.134 0.536s-0.034 0.261-0.075 0.393c-0.041 0.132-0.103 0.369-0.137 0.525s-0.094 0.348-0.133 0.425c-0.044 0.086-0.071 0.311-0.071 0.581 0 0.37-0.021 0.479-0.13 0.684-0.196 0.369-0.184 0.695 0.027 0.695 0.245 0 0.481-0.123 0.676-0.351 0.098-0.115 0.348-0.354 0.555-0.53s0.376-0.343 0.376-0.371c0-0.083 0.262-0.401 0.355-0.43 0.047-0.015 0.189-0.179 0.315-0.365s0.249-0.338 0.273-0.338 0.043-0.031 0.043-0.070c0-0.038 0.048-0.113 0.106-0.165s0.175-0.217 0.259-0.365c0.085-0.148 0.284-0.428 0.442-0.621s0.301-0.416 0.317-0.496c0.016-0.079 0.12-0.226 0.231-0.325 0.171-0.154 0.202-0.213 0.202-0.39 0-0.405 0.405-1.206 0.494-0.978 0.020 0.050-0.017 0.253-0.082 0.451-0.095 0.288-0.106 0.375-0.055 0.436s0.037 0.128-0.073 0.345c-0.075 0.148-0.122 0.304-0.106 0.348s0.004 0.111-0.028 0.15c-0.032 0.039-0.045 0.106-0.028 0.149s0.003 0.143-0.029 0.221c-0.033 0.078-0.077 0.317-0.098 0.531-0.040 0.41-0.103 0.738-0.197 1.036-0.031 0.099-0.044 0.221-0.029 0.27s-0.010 0.149-0.058 0.221c-0.055 0.083-0.074 0.18-0.053 0.263 0.018 0.072 0.005 0.182-0.028 0.245-0.093 0.175-0.104 0.809-0.016 0.98 0.041 0.079 0.074 0.191 0.074 0.248 0 0.109 0.139 0.212 0.285 0.212 0.046 0 0.264-0.169 0.483-0.376 0.553-0.522 0.701-0.63 1.184-0.863l0.422-0.204-0.041 0.164c-0.023 0.090-0.057 0.368-0.075 0.617s-0.069 0.588-0.112 0.752c-0.043 0.165-0.1 0.567-0.125 0.895-0.068 0.873-0.151 1.4-0.241 1.538-0.045 0.069-0.069 0.181-0.054 0.258 0.029 0.151-0.107 0.434-0.208 0.434-0.082 0-0.086 0.192-0.004 0.219 0.25 0.084-1.002 0.847-1.327 0.809-0.238-0.028-0.338 0.212-0.259 0.62 0.046 0.241 0.051 0.246 0.258 0.261 0.243 0.018 0.489-0.061 0.492-0.157 0.001-0.036 0.077-0.113 0.168-0.17s0.26-0.249 0.374-0.427c0.4-0.624 0.52-0.817 0.649-1.050 0.072-0.129 0.278-0.421 0.459-0.65 0.322-0.406 0.578-0.837 0.578-0.972 0-0.038 0.047-0.108 0.104-0.157 0.071-0.061 0.104-0.153 0.104-0.291s0.027-0.213 0.083-0.234c0.046-0.017 0.070-0.065 0.055-0.105s0.045-0.175 0.134-0.298c0.129-0.178 0.163-0.278 0.165-0.483 0.002-0.155 0.032-0.282 0.074-0.315 0.085-0.066 0.212-0.414 0.213-0.581 0.001-0.065 0.073-0.306 0.161-0.535s0.165-0.506 0.171-0.615c0.006-0.109 0.038-0.233 0.073-0.274s0.077-0.183 0.095-0.314c0.028-0.202 0.062-0.258 0.229-0.369 0.21-0.139 0.3-0.601 0.116-0.601-0.089 0-0.845 0.553-0.845 0.619 0 0.026-0.158 0.155-0.35 0.286s-0.528 0.367-0.746 0.523c-0.535 0.384-0.685 0.412-0.778 0.147-0.125-0.353-0.082-1.098 0.106-1.86 0.091-0.371 0.186-0.826 0.21-1.011s0.128-0.64 0.231-1.011c0.103-0.37 0.186-0.724 0.186-0.787s0.033-0.179 0.073-0.26c0.040-0.081 0.112-0.334 0.159-0.562s0.124-0.485 0.17-0.571c0.046-0.085 0.151-0.283 0.232-0.439s0.167-0.296 0.192-0.311c0.068-0.043 0.159-0.417 0.102-0.417-0.132 0-0.755 0.336-1.265 0.683-0.561 0.381-1.182 0.769-1.231 0.769-0.014 0-0.037-0.136-0.052-0.302-0.031-0.337-0.256-0.839-0.377-0.839-0.102 0-0.1 0.011 0.060 0.325 0.087 0.172 0.146 0.389 0.163 0.599l0.026 0.329-0.318 0.296c-0.364 0.337-0.378 0.377-0.163 0.458 0.221 0.083 0.215 0.103-0.395 1.188-0.701 1.247-1.094 1.854-1.391 2.145-0.409 0.4-0.435 0.202-0.132-0.983 0.033-0.128 0.076-0.362 0.096-0.519s0.065-0.336 0.099-0.398 0.063-0.188 0.063-0.28c0-0.092 0.058-0.287 0.13-0.433 0.2-0.409 0.648-2.403 0.648-2.886 0-0.199-0.372-0.22-0.702-0.041zM88.724 17.369c-0.106 0.054-0.206 0.078-0.222 0.052-0.043-0.069-0.138-0.056-0.114 0.016 0.012 0.035-0.267 0.244-0.631 0.472-1.187 0.746-1.956 1.378-2.17 1.784-0.065 0.123-0.292 0.391-0.505 0.597-0.354 0.342-0.382 0.383-0.319 0.477 0.059 0.089 0.053 0.126-0.045 0.271-0.063 0.092-0.142 0.315-0.177 0.496s-0.094 0.376-0.132 0.434c-0.037 0.058-0.081 0.222-0.098 0.363-0.058 0.508-0.098 0.724-0.141 0.779-0.024 0.030-0.054 0.357-0.067 0.726-0.013 0.404-0.066 0.877-0.133 1.188-0.061 0.284-0.1 0.544-0.087 0.578s-0.045 0.126-0.128 0.206c-0.162 0.155-0.19 0.274-0.089 0.375 0.184 0.184 0.668-0.044 1.111-0.523 0.137-0.149 0.346-0.317 0.463-0.374 0.319-0.155 0.957-0.87 0.957-1.073 0-0.211 0.086-0.347 1.024-1.608 0.438-0.59 0.877-1.232 0.975-1.426 0.167-0.331 0.176-0.34 0.145-0.146-0.018 0.114-0.055 0.222-0.083 0.24s-0.034 0.104-0.015 0.191c0.031 0.141 0.016 0.168-0.124 0.241-0.174 0.090-0.19 0.136-0.099 0.281 0.049 0.078 0.039 0.126-0.052 0.254-0.103 0.145-0.133 0.292-0.185 0.899-0.009 0.103-0.031 0.212-0.050 0.243s-0.005 0.118 0.030 0.194c0.058 0.128 0.051 0.15-0.083 0.257-0.141 0.112-0.144 0.124-0.078 0.306 0.064 0.175 0.060 0.194-0.046 0.269-0.124 0.087-0.149 0.227-0.057 0.319 0.043 0.043 0.034 0.121-0.033 0.297-0.082 0.214-0.083 0.248-0.012 0.328 0.053 0.060 0.065 0.125 0.037 0.194-0.062 0.153-0.058 0.167 0.046 0.194 0.058 0.015 0.109 0.092 0.13 0.194 0.032 0.16 0.043 0.167 0.202 0.131 0.093-0.021 0.262-0.056 0.376-0.079 0.164-0.032 0.273-0.112 0.518-0.378 0.248-0.268 0.412-0.387 0.804-0.583 0.775-0.387 1.309-0.783 1.6-1.189 0.191-0.266 0.196-0.288 0.064-0.288-0.187 0-0.268 0.065-0.394 0.312-0.22 0.434-1.003 0.889-1.171 0.68-0.336-0.415-0.078-2.807 0.5-4.623 0.095-0.299 0.211-0.673 0.258-0.83s0.137-0.367 0.202-0.467 0.133-0.243 0.151-0.318c0.019-0.076 0.137-0.213 0.266-0.311 0.128-0.096 0.245-0.21 0.26-0.253s0.126-0.144 0.248-0.225l0.221-0.147-0.285 0.041c-0.447 0.065-1.085 0.042-1.434-0.051-0.445-0.119-1.083-0.113-1.33 0.013zM108.899 17.369c-0.106 0.054-0.206 0.078-0.222 0.052-0.043-0.069-0.138-0.056-0.114 0.016 0.012 0.035-0.268 0.244-0.631 0.472-1.187 0.746-1.956 1.378-2.17 1.784-0.065 0.123-0.292 0.391-0.505 0.597-0.354 0.342-0.381 0.383-0.318 0.477 0.059 0.089 0.053 0.126-0.045 0.271-0.063 0.092-0.142 0.315-0.177 0.496s-0.094 0.376-0.132 0.434c-0.037 0.058-0.081 0.222-0.098 0.363-0.059 0.508-0.098 0.724-0.141 0.779-0.024 0.030-0.054 0.357-0.067 0.726-0.014 0.404-0.066 0.877-0.133 1.188-0.060 0.284-0.1 0.544-0.087 0.578s-0.045 0.126-0.128 0.206c-0.162 0.155-0.19 0.274-0.090 0.375 0.184 0.184 0.668-0.044 1.111-0.523 0.137-0.149 0.346-0.317 0.463-0.374 0.319-0.155 0.957-0.87 0.957-1.073 0-0.211 0.086-0.347 1.023-1.608 0.439-0.59 0.878-1.232 0.976-1.426 0.167-0.331 0.176-0.34 0.145-0.146-0.018 0.114-0.055 0.222-0.083 0.24s-0.034 0.104-0.015 0.191c0.031 0.141 0.016 0.168-0.124 0.241-0.174 0.090-0.19 0.136-0.099 0.281 0.049 0.078 0.039 0.126-0.052 0.254-0.103 0.145-0.134 0.292-0.185 0.899-0.009 0.103-0.031 0.212-0.050 0.243s-0.005 0.118 0.030 0.194c0.058 0.128 0.051 0.15-0.083 0.257-0.141 0.112-0.144 0.124-0.078 0.306 0.064 0.175 0.060 0.194-0.046 0.269-0.124 0.087-0.149 0.227-0.057 0.319 0.043 0.043 0.034 0.121-0.033 0.297-0.082 0.214-0.083 0.248-0.012 0.328 0.053 0.060 0.065 0.125 0.037 0.194-0.062 0.153-0.058 0.167 0.046 0.194 0.058 0.015 0.109 0.092 0.13 0.194 0.032 0.16 0.043 0.167 0.203 0.131 0.093-0.021 0.262-0.056 0.376-0.079 0.164-0.032 0.273-0.112 0.519-0.378 0.248-0.268 0.412-0.387 0.804-0.583 0.775-0.387 1.309-0.783 1.6-1.189 0.191-0.266 0.196-0.288 0.064-0.288-0.187 0-0.268 0.065-0.394 0.312-0.22 0.434-1.003 0.889-1.171 0.68-0.336-0.415-0.078-2.807 0.5-4.623 0.095-0.299 0.211-0.673 0.258-0.83s0.137-0.367 0.202-0.467 0.133-0.243 0.151-0.318c0.019-0.076 0.137-0.213 0.267-0.311 0.128-0.096 0.245-0.21 0.26-0.253s0.126-0.144 0.248-0.225l0.221-0.147-0.285 0.041c-0.447 0.065-1.085 0.042-1.434-0.051-0.445-0.119-1.083-0.113-1.33 0.013zM22.82 17.896c-0.071 0.057-0.18 0.15-0.241 0.206s-0.14 0.102-0.175 0.102c-0.227 0-1.192 0.733-1.192 0.905 0 0.074-0.057 0.17-0.14 0.235-0.114 0.090-0.13 0.127-0.084 0.201s0.027 0.125-0.098 0.269c-0.099 0.114-0.142 0.141-0.119 0.075 0.050-0.145 0.141-0.803 0.133-0.959-0.004-0.071-0.012-0.174-0.018-0.228-0.009-0.084 0.055-0.113 0.43-0.194 0.562-0.121 0.816-0.235 0.896-0.402 0.063-0.131 0.413-0.303 0.634-0.31 0.094-0.003 0.092 0.006-0.026 0.1zM90.814 17.896c-0.071 0.057-0.18 0.15-0.241 0.206s-0.14 0.102-0.175 0.102c-0.227 0-1.192 0.733-1.192 0.905 0 0.074-0.057 0.17-0.14 0.235-0.114 0.090-0.13 0.127-0.084 0.201s0.027 0.125-0.098 0.269c-0.099 0.114-0.141 0.141-0.119 0.075 0.050-0.145 0.141-0.803 0.133-0.959-0.004-0.071-0.012-0.174-0.018-0.228-0.010-0.084 0.055-0.113 0.43-0.194 0.562-0.121 0.816-0.235 0.896-0.402 0.063-0.131 0.413-0.303 0.634-0.31 0.095-0.003 0.092 0.006-0.026 0.1zM110.989 17.896c-0.071 0.057-0.18 0.15-0.241 0.206s-0.14 0.102-0.175 0.102c-0.227 0-1.192 0.733-1.192 0.905 0 0.074-0.057 0.17-0.14 0.235-0.114 0.090-0.13 0.127-0.084 0.201s0.027 0.125-0.098 0.269c-0.099 0.114-0.141 0.141-0.119 0.075 0.050-0.145 0.141-0.803 0.133-0.959-0.004-0.071-0.012-0.174-0.018-0.228-0.010-0.084 0.055-0.113 0.43-0.194 0.562-0.121 0.816-0.235 0.896-0.402 0.063-0.131 0.413-0.303 0.634-0.31 0.095-0.003 0.092 0.006-0.026 0.1zM20.714 18.701c0.278 0.724-0.567 2.41-2.265 4.522-0.304 0.378-0.484 0.563-0.509 0.522-0.040-0.065 0.123-0.558 0.248-0.751 0.1-0.155 0.143-0.319 0.379-1.48 0.276-1.352 0.525-2.123 0.725-2.247 0.029-0.018 0.053-0.072 0.054-0.12 0.004-0.271 0.337-0.472 0.814-0.49 0.25-0.009 0.47-0.022 0.489-0.028s0.047 0.026 0.065 0.071zM88.708 18.701c0.278 0.724-0.567 2.41-2.265 4.522-0.304 0.378-0.484 0.563-0.509 0.522-0.040-0.065 0.123-0.558 0.248-0.751 0.101-0.155 0.143-0.319 0.38-1.48 0.276-1.352 0.525-2.123 0.725-2.247 0.029-0.018 0.053-0.072 0.054-0.12 0.004-0.271 0.337-0.472 0.814-0.49 0.25-0.009 0.47-0.022 0.488-0.028s0.048 0.026 0.065 0.071zM108.883 18.701c0.278 0.724-0.567 2.41-2.265 4.522-0.304 0.378-0.484 0.563-0.509 0.522-0.040-0.065 0.123-0.558 0.248-0.751 0.101-0.155 0.143-0.319 0.38-1.48 0.276-1.352 0.525-2.123 0.725-2.247 0.029-0.018 0.053-0.072 0.054-0.12 0.004-0.271 0.337-0.472 0.814-0.49 0.25-0.009 0.47-0.022 0.488-0.028s0.048 0.026 0.065 0.071z"></path>
</svg>
