<!-- Generated by IcoMoon.io -->
<svg version="1.1" xmlns="http://www.w3.org/2000/svg" width="131" height="32" viewBox="0 0 131 32">
<title>new-design-feather</title>
<path d="M127.369 1.127c-0.654 0.248-2.839 0.654-4.845 0.946-3.493 0.473-4.214 0.496-17.51 0.451-12.597-0.023-16.338-0.090-27.561-0.383-1.938-0.045-6.107 0-9.239 0.135-3.11 0.113-8.721 0.316-12.439 0.428-7.256 0.248-8.541 0.338-10.479 0.676-0.676 0.135-2.208 0.338-3.38 0.451-6.648 0.699-8.766 1.239-12.034 3.065-3.268 1.87-4.868 3.087-6.355 4.89-2.411 2.907-3.425 4.439-3.718 5.656-0.248 1.059-0.518 1.465-0.924 1.487-0.406 0-0.135-1.735 0.541-3.335 0.541-1.33 1.014-2.051 2.051-3.065 1.194-1.194 1.285-1.352 0.969-1.668-0.473-0.473-0.856-0.113-1.623 1.442-0.316 0.676-0.676 1.217-0.789 1.217s-0.203 0.113-0.203 0.27c0 0.135-0.135 0.428-0.316 0.608-0.316 0.361-1.397 2.276-2.299 4.101-0.293 0.563-0.654 1.149-0.811 1.262-0.158 0.135-1.713 0.811-3.448 1.51s-3.358 1.397-3.606 1.532c-0.248 0.135-1.262 0.654-2.254 1.149-2.434 1.217-5.341 2.952-5.837 3.515-0.721 0.789-0.27 0.924 2.885 0.924 2.794 0 3.020-0.023 3.718-0.541 0.811-0.608 7.482-3.966 7.865-3.966 0.113 0 1.082-0.361 2.096-0.811 1.645-0.699 2.028-0.766 3.020-0.654 1.442 0.203 4.98 2.006 7.301 3.741 2.299 1.69 5.634 3.448 7.346 3.899 4.034 0.992 10.569 1.42 12.124 0.789 0.631-0.27 0.811-0.946 0.338-1.262-0.158-0.090-1.87-0.18-3.786-0.18s-4.146-0.135-4.958-0.293c-0.811-0.158-2.321-0.451-3.38-0.654-2.411-0.428-5.701-2.096-7.865-3.966-0.811-0.699-2.118-1.758-2.884-2.344-0.789-0.586-1.42-1.194-1.42-1.352s0.023-0.293 0.068-0.293c0.023 0 2.118-0.721 4.665-1.577 2.546-0.879 6.039-1.938 7.775-2.366s3.561-0.879 4.056-0.992c3.876-1.014 15.684-2.997 21.521-3.651 1.307-0.135 2.772-0.383 3.268-0.563s1.217-0.316 1.623-0.316c0.406 0 1.713-0.158 2.93-0.338s4.192-0.473 6.603-0.676c5.138-0.428 14.332-1.239 15.73-1.397 0.789-0.090 1.284 0.045 2.862 0.811 1.059 0.518 2.028 0.924 2.163 0.924 0.428 0-0.023-0.406-1.262-1.104-0.676-0.383-1.239-0.811-1.239-0.924 0-0.135 0.744-0.225 1.758-0.225 0.946 0 3.11-0.225 4.777-0.473 1.668-0.27 3.899-0.563 4.958-0.676 2.073-0.18 6.355-0.766 8.338-1.104 0.676-0.113 1.487-0.248 1.803-0.293 0.316-0.068 1.352-0.27 2.344-0.473 0.969-0.225 1.825-0.338 1.893-0.27 0.158 0.158 0.203 0.113-1.42 1.149-1.758 1.104-4.913 3.403-5.994 4.349-0.789 0.699-0.946 0.744-1.803 0.608-0.699-0.113-1.104-0.068-1.69 0.248-0.924 0.496-0.946 0.608-0.203 0.946 0.316 0.135 0.563 0.361 0.563 0.451 0 0.293-3.358 2.299-5.634 3.38-4.777 2.254-6.13 2.749-10.141 3.718-2.704 0.654-2.659 0.654-5.679-0.338-2.186-0.744-2.93-0.901-3.132-0.699-0.451 0.451-0.045 0.901 1.194 1.375 0.654 0.248 1.577 0.631 2.073 0.834l0.856 0.361-0.496 0.541c-0.473 0.496-1.465 0.789-6.31 1.825-0.316 0.068-2.141 0.27-4.079 0.428-2.885 0.248-4.011 0.248-6.332 0-1.577-0.18-3.042-0.406-3.313-0.541-0.248-0.135-0.541-0.248-0.676-0.248-0.541 0-0.18 0.473 1.149 1.51l1.42 1.082-2.141 0.27c-1.172 0.158-3.313 0.496-4.732 0.766s-2.885 0.496-3.268 0.473c-0.992-0.045-3.538-1.285-5.521-2.704-1.713-1.239-3.177-2.073-3.606-2.073-0.699 0-0.023 0.789 1.51 1.78 2.524 1.623 4.8 3.245 4.8 3.448 0 0.361-1.33 0.518-4.304 0.518h-3.042l-2.592-1.262c-1.442-0.699-2.952-1.577-3.38-1.938-0.766-0.654-4.575-2.817-7.008-3.989-2.299-1.127-3.966-1.194-3.020-0.158 0.248 0.27 0.563 0.473 0.744 0.473s1.442 0.541 2.839 1.217c2.163 1.037 5.566 3.177 9.668 6.084 1.172 0.856 2.975 1.262 5.386 1.262 1.532 0 4.913-0.496 5.363-0.766 0.135-0.090 1.239-0.316 2.456-0.473 1.194-0.18 3.11-0.541 4.214-0.789 1.127-0.27 3.177-0.541 4.575-0.608 2.479-0.135 2.524-0.135 2.682-0.699 0.090-0.406 0.023-0.654-0.27-0.856-0.225-0.18-0.383-0.361-0.316-0.406 0.045-0.045 2.231-0.135 4.845-0.225 3.718-0.090 5.386-0.248 7.775-0.699 4.913-0.924 5.476-1.082 5.972-1.623 0.27-0.293 0.631-0.518 0.811-0.518s0.518-0.203 0.744-0.451c0.225-0.248 0.563-0.451 0.766-0.451s1.893-0.406 3.741-0.901c3.11-0.856 4.845-1.51 8.361-3.177 0.744-0.361 1.42-0.654 1.51-0.654 0.158 0 4.507-2.704 4.665-2.907 0.068-0.090 0.428-0.338 0.789-0.563 0.383-0.248 1.127-0.811 1.69-1.284 2.456-2.073 8.18-5.972 10.321-7.054 0.879-0.451 1.938-1.104 2.344-1.465 0.428-0.361 1.397-0.834 2.208-1.082 1.285-0.383 1.465-0.496 1.532-1.037s0-0.608-0.563-0.586c-0.338 0-1.172 0.203-1.825 0.428zM86.423 3.854c5.589 0.135 12.575 0.225 15.549 0.203 6.377-0.023 12.124 0.225 10.93 0.473-0.428 0.090-2.299 0.383-4.169 0.654-3.425 0.473-4.62 0.654-8.451 1.239-1.172 0.158-3.2 0.383-4.507 0.451-1.307 0.090-3.38 0.293-4.62 0.473-1.239 0.158-2.749 0.316-3.358 0.316h-1.127l0.654-0.676c0.361-0.361 0.586-0.721 0.518-0.811-0.090-0.068-0.856 0.27-1.713 0.789-1.51 0.879-1.645 0.924-4.575 1.149-5.115 0.406-10.592 0.901-12.372 1.127-0.924 0.113-2.997 0.316-4.62 0.451-1.6 0.135-4.146 0.383-5.634 0.563-3.132 0.383-3.493 0.406-3.493 0.158 0-0.090 0.496-0.676 1.127-1.284 1.735-1.758 1.465-2.546-0.383-1.194-0.541 0.406-1.623 1.217-2.389 1.78-1.059 0.811-1.668 1.082-2.524 1.194-0.608 0.068-1.78 0.225-2.592 0.361s-2.276 0.338-3.268 0.451c-0.992 0.135-2.817 0.473-4.056 0.766-6.152 1.465-7.324 1.668-7.324 1.239 0-0.518 0.834-1.713 2.141-3.065 1.33-1.375 1.352-1.42 1.014-1.42-0.496 0-2.231 1.487-4.214 3.583-1.713 1.825-2.208 2.231-3.042 2.434-2.276 0.563-5.386 1.51-7.121 2.141-1.014 0.383-1.916 0.631-2.006 0.563-0.203-0.203 2.276-3.808 3.628-5.296 1.262-1.352 3.335-3.020 4.71-3.763 0.518-0.27 1.645-0.856 2.479-1.307 2.411-1.307 4.282-1.735 10.186-2.321 1.983-0.203 4.417-0.451 5.408-0.563s4.597-0.316 8-0.428c3.403-0.113 8.721-0.316 11.786-0.428 3.087-0.113 5.656-0.27 5.724-0.338 0.090-0.068 0.924-0.090 1.848-0.023 0.946 0.068 6.287 0.225 11.854 0.361z"></path>
</svg>
