<!-- Generated by IcoMoon.io -->
<svg version="1.1" xmlns="http://www.w3.org/2000/svg" width="64" height="64" viewBox="0 0 64 64">
<title>faq</title>
<path d="M48.966 16.595c0 1.939-1.411 3.118-2.442 3.983-0.39 0.328-1.117 0.926-1.115 1.149 0.007 0.876-0.697 1.576-1.574 1.576-0.004 0-0.009 0-0.013 0-0.87 0-1.579-0.678-1.586-1.55-0.014-1.718 1.24-2.748 2.248-3.594 0.791-0.664 1.309-1.131 1.309-1.559 0-0.866-0.704-1.57-1.57-1.57s-1.57 0.704-1.57 1.57c0 0.876-0.71 1.587-1.587 1.587s-1.587-0.71-1.587-1.587c0-2.615 2.128-4.743 4.743-4.743s4.744 2.122 4.744 4.737zM43.866 24.768c-0.876 0-1.552 0.71-1.552 1.587v0.012c0 0.876 0.675 1.581 1.552 1.581s1.587-0.716 1.587-1.593-0.71-1.587-1.587-1.587zM11.882 35.821c-0.876 0-1.587 0.71-1.587 1.587s0.71 1.587 1.587 1.587h0.132c0.876 0 1.587-0.71 1.587-1.587s-0.71-1.587-1.587-1.587h-0.132zM17.397 35.821c-0.876 0-1.587 0.71-1.587 1.587s0.71 1.587 1.587 1.587h0.132c0.876 0 1.587-0.71 1.587-1.587s-0.71-1.587-1.587-1.587h-0.132zM64 10.477v17.86c0 4.229-3.391 7.66-7.62 7.66h-20.578c-0.402 0-0.734-0.002-1.011-0.008-0.29-0.006-0.617-0.008-0.745 0.006-0.133 0.088-0.458 0.386-0.772 0.675-0.124 0.114-0.265 0.24-0.417 0.379l-5.822 5.307c-0.464 0.424-1.151 0.533-1.727 0.28s-0.979-0.823-0.979-1.452v-16.823h-16.622c-2.479 0-4.535 2.032-4.535 4.511v17.86c0 2.479 2.056 4.428 4.535 4.428h22.986c0.396 0 0.766 0.182 1.058 0.449l4.743 4.373v-15.081c0-0.876 0.71-1.587 1.587-1.587s1.587 0.71 1.587 1.587v18.678c0 0.629-0.36 1.19-0.935 1.443-0.206 0.091-0.412 0.127-0.629 0.127-0.389 0-0.772-0.16-1.070-0.432l-6.957-6.383h-22.371c-4.229 0-7.708-3.373-7.708-7.602v-17.86c0-4.229 3.479-7.684 7.708-7.684h16.622v-10.711c0-4.229 3.506-7.625 7.735-7.625h24.315c4.229 0 7.619 3.397 7.619 7.625zM60.826 10.477c0-2.479-1.967-4.452-4.446-4.452h-24.315c-2.479 0-4.561 1.973-4.561 4.452v27.11l3.19-2.883c0.148-0.135 0.313-0.258 0.434-0.37 1.457-1.342 1.83-1.557 3.73-1.518 0.259 0.005 0.568 0.007 0.944 0.007h20.578c2.479 0 4.446-2.008 4.446-4.487v-17.86z"></path>
</svg>
