<!-- Generated by IcoMoon.io -->
<svg version="1.1" xmlns="http://www.w3.org/2000/svg" width="63" height="32" viewBox="0 0 63 32">
<title>mastilnitsa-handmade-M</title>
<path fill='%23fff' d="M61.844 0.42c-1.242 0.441-2.754 0.536-8.288 0.519-4.668-0.014-6.060-0.034-10.215-0.144-0.724-0.019-2.266 0.002-3.426 0.047s-3.237 0.119-4.615 0.164c-2.686 0.088-3.169 0.119-3.886 0.249-0.253 0.046-0.817 0.12-1.253 0.166-2.463 0.256-3.249 0.457-4.458 1.14-1.847 1.043-3.455 2.724-3.735 3.905-0.144 0.608-0.411 0.774-0.411 0.255 0-0.56 0.48-1.531 1.024-2.073 0.444-0.442 0.481-0.504 0.366-0.62-0.174-0.175-0.321-0.045-0.604 0.534-0.121 0.248-0.254 0.451-0.294 0.451s-0.074 0.044-0.074 0.098-0.052 0.157-0.116 0.23c-0.119 0.136-0.517 0.841-0.856 1.519-0.25 0.498-0.213 0.475-1.576 1.028-0.643 0.261-1.245 0.517-1.336 0.568s-0.468 0.243-0.835 0.426c-1.487 0.741-2.383 1.358-2.26 1.556 0.126 0.204 2.24 0.11 2.543-0.114s2.772-1.468 2.913-1.468c0.048 0 0.401-0.134 0.784-0.298 1.065-0.456 2.089-0.151 3.825 1.139 1.773 1.317 3.549 1.864 5.98 1.843 1.070-0.009 1.462-0.103 1.462-0.35 0-0.253-0.157-0.283-1.504-0.289-0.712-0.003-1.539-0.053-1.838-0.111s-0.863-0.164-1.253-0.235c-0.892-0.161-2.115-0.779-2.913-1.47-0.305-0.264-0.79-0.657-1.077-0.871-0.413-0.309-0.658-0.608-0.501-0.612 0.012-0 0.792-0.265 1.734-0.588s2.239-0.716 2.883-0.872 1.32-0.324 1.504-0.371c1.437-0.371 5.811-1.11 7.979-1.349 0.483-0.053 1.028-0.148 1.212-0.211s0.455-0.115 0.602-0.116c0.148-0.001 0.636-0.056 1.086-0.123s1.551-0.181 2.447-0.254c1.909-0.155 5.317-0.459 5.828-0.519 0.296-0.035 0.476 0.016 1.067 0.301 1.008 0.486 1.232 0.44 0.332-0.068-0.618-0.349-0.584-0.425 0.188-0.425 0.356-0 1.155-0.080 1.776-0.177s1.447-0.208 1.838-0.245c0.769-0.073 2.353-0.284 3.091-0.411 0.253-0.043 0.553-0.095 0.668-0.114s0.504-0.098 0.865-0.176c0.361-0.077 0.677-0.12 0.703-0.094 0.058 0.058 0.078 0.042-0.524 0.422-0.649 0.409-1.82 1.26-2.226 1.617-0.288 0.253-0.351 0.274-0.663 0.221-0.565-0.096-1.121 0.256-0.704 0.445 0.115 0.052 0.209 0.129 0.209 0.169 0 0.105-1.249 0.852-2.089 1.249-1.772 0.837-2.273 1.021-3.76 1.38-1.004 0.242-0.987 0.243-2.107-0.129-0.81-0.27-1.085-0.33-1.16-0.256-0.167 0.167-0.021 0.337 0.441 0.512 0.244 0.093 0.59 0.23 0.767 0.306l0.323 0.137-0.186 0.198c-0.174 0.186-0.543 0.293-2.34 0.68-1.273 0.274-4.541 0.245-5.084-0.046-0.541-0.29-0.434 0 0.174 0.468l0.521 0.401-0.792 0.103c-0.436 0.057-1.224 0.185-1.751 0.286-1.435 0.273-1.879 0.16-3.257-0.829-0.639-0.458-1.179-0.769-1.337-0.769-0.259 0-0.010 0.293 0.561 0.659 0.935 0.599 1.775 1.205 1.775 1.279 0 0.133-0.494 0.193-1.592 0.193h-1.132l-0.963-0.47c-0.529-0.258-1.091-0.58-1.249-0.714-0.285-0.244-1.698-1.050-2.601-1.485-0.855-0.412-1.467-0.44-1.116-0.052 0.086 0.095 0.208 0.172 0.273 0.172 0.437 0 2.598 1.263 4.636 2.711 0.718 0.51 3.262 0.624 3.983 0.179 0.056-0.034 0.466-0.114 0.913-0.178s1.15-0.194 1.564-0.29c0.414-0.096 1.175-0.197 1.693-0.223 1.013-0.053 1.333-0.26 0.894-0.581-0.233-0.171-0.201-0.175 1.679-0.226 1.385-0.038 1.999-0.093 2.883-0.261 1.826-0.346 2.030-0.402 2.218-0.605 0.097-0.105 0.232-0.191 0.3-0.191s0.192-0.075 0.275-0.167c0.083-0.092 0.213-0.167 0.287-0.167s0.696-0.151 1.38-0.336c1.154-0.312 1.801-0.557 3.102-1.177 0.279-0.133 0.531-0.242 0.559-0.242 0.061 0 1.67-1.004 1.731-1.080 0.023-0.028 0.155-0.123 0.292-0.21s0.42-0.301 0.627-0.474c0.913-0.765 3.033-2.214 3.823-2.612 0.328-0.165 0.721-0.41 0.874-0.543 0.154-0.135 0.517-0.313 0.819-0.402 0.479-0.141 0.545-0.185 0.568-0.385 0.033-0.28-0.212-0.296-0.887-0.056zM46.663 1.428c2.068 0.049 4.662 0.085 5.765 0.079 2.36-0.012 4.497 0.078 4.052 0.172-0.161 0.034-0.856 0.141-1.546 0.239-1.271 0.18-1.709 0.245-3.133 0.459-0.436 0.066-1.188 0.143-1.671 0.173s-1.253 0.106-1.713 0.171-1.021 0.118-1.248 0.119l-0.413 0.001 0.239-0.25c0.366-0.382 0.2-0.386-0.441-0.011-0.564 0.329-0.611 0.341-1.699 0.426-1.897 0.149-3.929 0.334-4.586 0.418-0.345 0.044-1.115 0.119-1.713 0.167s-1.537 0.142-2.089 0.21c-1.53 0.187-1.494 0.204-0.88-0.417 0.642-0.649 0.548-0.947-0.139-0.439-0.202 0.149-0.6 0.445-0.885 0.657-0.397 0.295-0.617 0.398-0.937 0.437-0.23 0.028-0.662 0.090-0.961 0.137s-0.844 0.124-1.212 0.17c-0.368 0.046-1.044 0.174-1.504 0.283-3.15 0.75-3.266 0.709-1.922-0.679 0.492-0.508 0.504-0.525 0.376-0.525-0.183 0-0.83 0.55-1.558 1.326-0.638 0.68-0.825 0.829-1.128 0.904-0.847 0.21-1.998 0.557-2.641 0.796-0.882 0.328-0.898 0.297-0.304-0.577 0.812-1.196 1.719-2.076 2.652-2.572 0.191-0.102 0.603-0.323 0.914-0.491 0.896-0.484 1.59-0.641 3.778-0.857 0.735-0.072 1.638-0.166 2.005-0.208s1.702-0.114 2.966-0.159c1.264-0.045 3.231-0.116 4.371-0.158s2.096-0.098 2.124-0.126c0.028-0.028 0.336-0.032 0.684-0.008s2.325 0.084 4.393 0.133zM9.441 11.159c-0.115 0.020-0.541 0.080-0.947 0.134l-0.738 0.097-0.337 0.446c-0.522 0.691-0.389 1.824 0.26 2.214 0.289 0.174 2.113 0.258 2.355 0.108 0.138-0.085 1.542-0.285 2.015-0.286 0.391-0.001 0.494-0.032 0.567-0.169 0.103-0.194 0.436-0.347 1.086-0.499 0.253-0.059 0.61-0.184 0.794-0.278 0.224-0.114 0.537-0.178 0.949-0.195 0.757-0.031 0.948-0.087 0.914-0.267-0.023-0.121-0.21-0.146-1.404-0.188-3.618-0.129-4.101-0.422-0.673-0.407 3.167 0.014 4.559 0.165 4.811 0.525 0.589 0.841-0.406 1.56-1.99 1.437-1.353-0.105-1.565 0.355-0.246 0.533 2.057 0.278 3.638 0.092 3.936-0.463 0.353-0.658 0.060-2.035-0.49-2.303-0.274-0.134-2.935-0.404-3.76-0.382-0.161 0.004-1.778-0.015-3.593-0.042s-3.394-0.034-3.509-0.013zM10.444 14.708c-0.299 0.032-0.75 0.040-1.003 0.018-1.118-0.096-2.491 0.243-4.147 1.026-4.264 2.014-4.331 2.076-4.242 3.957 0.055 1.152 0.112 1.698 0.188 1.797 0.039 0.051 0.117 0.337 0.174 0.635s0.152 0.693 0.211 0.877 0.155 0.56 0.212 0.835c0.271 1.317 0.748 2.085 1.797 2.895 0.43 0.332 0.972 0.772 1.629 1.324 0.75 0.63 1.132 0.92 1.337 1.014 0.115 0.053 0.481 0.221 0.815 0.373 0.603 0.275 0.606 0.278 0.606 0.606 0 1.044 1.349 1.279 7.294 1.27 1.805-0.003 2.108-0.059 1.849-0.345-0.119-0.131-0.26-0.16-0.774-0.16h-0.629l-0.381-0.397c-0.363-0.378-0.397-0.456-0.704-1.623-0.341-1.296-0.46-1.531-1.234-2.422-0.705-0.812-0.807-1.101-0.916-2.618-0.358-4.941-0.13-6.387 1.209-7.661 0.756-0.719 0.793-0.711 0.401 0.078-0.583 1.173-0.634 1.607-0.638 5.41-0.003 3.577 0.043 4.073 0.391 4.184 0.328 0.104 0.346-0.035 0.259-1.987-0.177-3.961-0.070-6.447 0.31-7.168 0.209-0.397 0.457-0.915 0.563-1.178 0.097-0.239 0.54-0.326 1.656-0.326 0.289 0 0.616-0.034 0.726-0.076 0.132-0.050 0.413-0.036 0.82 0.042 0.756 0.144 0.745 0.144 0.745 0.007 0-0.147-0.289-0.281-0.752-0.349-0.523-0.077-7.105-0.109-7.77-0.039zM20.318 15.345c0.018 0.095 0.289 0.222 0.863 0.403 1.589 0.503 2.857 1.43 4.354 3.182l0.409 0.479-0.004 1.387c-0.006 2.147-0.35 3.664-0.986 4.342-0.328 0.35-2.485 2.161-2.938 2.466-0.184 0.124-0.579 0.394-0.877 0.599-1.52 1.046-3.239 0.734-3.457-0.627-0.094-0.586 0.344-1.794 0.956-2.636 0.167-0.23 0.362-0.531 0.434-0.668 0.281-0.538 1.187-1.472 1.733-1.785 0.735-0.423 0.711-0.886-0.026-0.5-2.512 1.316-5.045 4.764-4.732 6.44 0.36 1.929 2.127 2.444 4.419 1.288 4.501-2.27 6.438-4.846 6.447-8.576 0.002-0.948 0.062-1.337 0.206-1.337 0.064 0 0.189 0.141 0.278 0.313s0.362 0.614 0.608 0.982c0.693 1.038 1.2 2.072 1.958 3.997 0.16 0.406 0.477 1.108 0.705 1.558s0.414 0.845 0.414 0.876c0 0.031 0.182 0.326 0.405 0.656s0.513 0.763 0.644 0.963c0.447 0.68 1.349 1.284 1.754 1.172 0.486-0.134 1.462-1.754 2.371-3.936 0.547-1.312 1.902-3.78 2.166-3.942 0.297-0.183 1.666 3.262 1.889 4.755 0.028 0.184 0.084 0.748 0.125 1.253 0.1 1.229 0.206 1.521 0.658 1.824 0.512 0.344 0.583 0.223 0.32-0.541-0.116-0.338-0.236-0.859-0.266-1.157-0.14-1.385-0.488-3.178-1.119-5.765-0.497-2.038-0.498-2.207-0.019-2.961 0.272-0.428 0.358-0.965 0.155-0.965-0.127 0-0.869 0.754-1.152 1.17-0.109 0.161-0.266 0.366-0.349 0.457-0.134 0.146-0.442 0.633-0.814 1.287-0.675 1.186-1.016 1.81-1.25 2.29-0.152 0.312-0.393 0.725-0.535 0.919s-0.438 0.626-0.657 0.96c-0.219 0.334-0.611 0.861-0.869 1.17-0.921 1.102-1.073 1.080-1.846-0.261-0.128-0.223-0.315-0.523-0.415-0.668-0.282-0.41-1.295-2.034-1.702-2.728-0.202-0.345-0.59-0.965-0.862-1.379s-0.616-0.94-0.765-1.17c-0.761-1.177-0.947-1.454-1.237-1.838-0.173-0.23-0.436-0.583-0.583-0.786-0.279-0.382-1.029-0.893-2.273-1.548-0.368-0.193-0.744-0.395-0.835-0.448-1.016-0.588-3.769-1.305-3.703-0.965zM5.758 16.074c-0.019 0.018-0.317 0.255-0.662 0.528-0.541 0.428-1.804 1.636-2.254 2.156-0.325 0.375-0.364 0.737-0.313 2.88 0.041 1.723 0.031 2.016-0.061 1.84-0.199-0.378-0.466-2.429-0.489-3.76-0.023-1.339-0.132-1.193 2.089-2.827 0.44-0.324 1.945-1.052 1.689-0.817zM11.218 29.902c1.715 0.148 1.742 0.153 2.359 0.466 0.962 0.488 0.703 0.585-0.81 0.301-0.775-0.145-1.557-0.227-2.787-0.293-0.591-0.031-0.908-0.198-0.942-0.497-0.026-0.225-0.013-0.237 0.209-0.183 0.13 0.031 1.017 0.124 1.971 0.206z"></path>
</svg>
