<!-- Generated by IcoMoon.io -->
<svg version="1.1" xmlns="http://www.w3.org/2000/svg" width="64" height="64" viewBox="0 0 64 64">
<title>mastilnitsata-book</title>
<path d="M63.741 61.988l-6.742-8.77c-0.21-0.274-0.524-0.448-0.868-0.482-4.574-0.454-7.016-1.425-8.979-2.206-1.736-0.69-3.531-1.404-5.848-1.404-3.528 0-6.226 1.881-8.055 4.014v-0.046c1.019-2.35 3.735-6.057 7.955-6.057 1.815 0 3.229 0.563 4.867 1.214 1.367 0.543 3.068 1.22 5.555 1.743 0.676 0.142 1.338-0.291 1.48-0.966s-0.291-1.338-0.966-1.48c-2.277-0.478-3.8-1.084-5.145-1.62-1.719-0.684-3.496-1.391-5.791-1.391-4.393 0-7.485 2.944-9.205 5.625-1.72-2.681-4.812-5.625-9.206-5.625-2.294 0-4.072 0.707-5.791 1.391-1.94 0.772-4.354 1.732-8.877 2.18-0.687 0.068-1.188 0.68-1.121 1.367s0.681 1.188 1.368 1.121c4.872-0.483 7.578-1.56 9.554-2.345 1.637-0.651 3.051-1.214 4.867-1.214 4.22 0 6.937 3.708 7.956 6.058v0.046c-1.83-2.132-4.527-4.014-8.056-4.014-2.316 0-4.111 0.714-5.849 1.405-1.962 0.78-4.403 1.751-8.977 2.205-0.343 0.034-0.657 0.209-0.868 0.482l-6.741 8.77c-0.29 0.377-0.341 0.887-0.13 1.314s0.645 0.697 1.121 0.697h61.5c0.476 0 0.911-0.27 1.121-0.697s0.16-0.937-0.13-1.314zM41.305 51.625c1.837 0 3.268 0.569 4.925 1.228 1.922 0.765 4.528 1.801 9.114 2.313l4.855 6.317c-8.354-0.18-12.319-1.757-14.995-2.822-1.553-0.618-2.579-1.026-3.899-1.026-2.31 0-3.894 1.734-4.55 3.223-0.006 0.012-0.012 0.023-0.018 0.036l-0.285 0.606h-3.203v-3.741c1.030-2.378 3.781-6.134 8.055-6.134zM8.656 55.166c4.586-0.512 7.191-1.549 9.115-2.313 1.656-0.659 3.086-1.228 4.923-1.228 4.274 0 7.025 3.756 8.056 6.134v3.741h-3.204l-0.284-0.606c-0.006-0.012-0.012-0.024-0.018-0.036-0.657-1.489-2.24-3.223-4.55-3.223-1.32 0-2.346 0.408-3.899 1.026-2.676 1.064-6.642 2.642-14.995 2.822zM19.72 60.984c1.376-0.547 2.134-0.849 2.974-0.849 1.079 0 1.756 0.849 2.068 1.365h-6.365c0.476-0.179 0.913-0.353 1.323-0.516zM39.237 61.5c0.313-0.516 0.99-1.365 2.068-1.365 0.841 0 1.599 0.301 2.975 0.849 0.409 0.163 0.847 0.336 1.322 0.516z"></path>
<path d="M55.582 50.59l0.045 0.004c0.041 0.004 0.083 0.006 0.124 0.006 0.636 0 1.179-0.482 1.243-1.128 0.067-0.687-0.435-1.299-1.122-1.366l-0.044-0.004c-0.687-0.068-1.299 0.434-1.367 1.121s0.434 1.299 1.121 1.367z"></path>
<path d="M27.781 30.755c-0.325 0.028-0.628 0.182-0.842 0.431-0.238 0.277-0.342 0.644-0.287 1.004 0.518 3.374 2.314 5.68 4.936 6.471-0.060 0.473-0.116 0.946-0.166 1.42l-0.666 6.347c-0.072 0.687 0.426 1.302 1.113 1.374 0.044 0.005 0.088 0.007 0.132 0.007 0.632 0 1.174-0.477 1.242-1.12l0.666-6.347c0.048-0.461 0.103-0.921 0.16-1.379 5.814-0.072 9.364-3.779 11.141-11.619 0.198-0.872 0.438-1.888 0.713-3.019 0.087-0.358 0.012-0.737-0.206-1.035-0.081-0.11-0.179-0.206-0.288-0.283l0.492-0.281c0.295-0.168 0.509-0.451 0.592-0.781 2.184-8.691 5.381-20.246 5.414-20.361 0.108-0.389 0.022-0.805-0.232-1.119s-0.644-0.487-1.044-0.463c-0.423 0.024-10.465 0.75-18.72 14.179-0.103 0.166-0.202 0.332-0.301 0.497-0.152 0.253-0.209 0.552-0.162 0.843l0.626 3.854h-2.123c-0.501 0-0.953 0.299-1.15 0.759-1.338 3.136-2.107 6.080-2.286 8.751-0.024 0.355 0.105 0.704 0.354 0.958zM44.218 20.82l-3.338 1.908c-0.478 0.273-0.722 0.828-0.598 1.365s0.584 0.93 1.134 0.967l1.731 0.116c-0.138 0.58-0.263 1.12-0.376 1.615-1.804 7.961-5.136 9.533-8.336 9.666 1.834-11.059 6.475-21.329 13.576-30.032-1.091 4.023-2.58 9.591-3.793 14.395zM30.806 21.875h2.756c0.366 0 0.714-0.161 0.952-0.44s0.34-0.648 0.282-1.010l-0.788-4.851c0.017-0.028 0.034-0.055 0.051-0.083 3.941-6.412 8.286-9.602 11.236-11.15 0.699-0.367 1.354-0.66 1.952-0.897-4.301 4.994-7.831 10.577-10.496 16.612-2.275 5.151-3.882 10.546-4.798 16.084-1.361-0.558-2.091-1.751-2.483-2.89h1.278c0.503 0 0.957-0.302 1.152-0.766s0.093-0.999-0.259-1.359l-2.568-2.623c0.202-2.031 0.783-4.255 1.731-6.627z"></path>
</svg>
