<!-- Generated by IcoMoon.io -->
<svg version="1.1" xmlns="http://www.w3.org/2000/svg" width="64" height="64" viewBox="0 0 64 64">
<title>mastilnitsata-logo</title>
<path d="M40.751 64h-37.741l0.109-1.433c0.612-8.095 5.184-12.928 13.596-14.38v-1.52h-2.667v-8h16v8h-2.667v1.52c8.297 1.433 12.64 6.147 13.263 14.38l0.107 1.433zM5.937 61.333h31.891c-0.92-6.409-4.661-9.723-11.955-10.677l-1.16-0.152v-6.504h2.667v-2.667h-10.667v2.667h2.667v6.503l-1.16 0.152c-7.4 0.969-11.337 4.376-12.283 10.679z"></path>
<path d="M26.667 36.020c-0.341 0-0.683-0.131-0.943-0.391-0.521-0.521-0.521-1.364 0-1.885l32.465-32.467c0.521-0.521 1.364-0.521 1.885 0s0.521 1.364 0 1.885l-32.465 32.467c-0.26 0.26-0.601 0.391-0.943 0.391z"></path>
<path d="M30.848 31.837c-0.341 0-0.683-0.131-0.943-0.391-4.229-4.229-0.916-14.168 7.543-22.627 4.036-4.036 8.569-7.055 12.764-8.5 0.407-0.141 0.859-0.076 1.208 0.175 0.351 0.251 0.559 0.655 0.559 1.085v9.085c0 0.736-0.597 1.333-1.333 1.333s-1.333-0.597-1.333-1.333v-7.119c-3.299 1.492-6.848 4.027-9.98 7.159-7.779 7.777-10.219 16.18-7.543 18.856 0.521 0.521 0.521 1.365 0 1.885-0.26 0.261-0.6 0.391-0.941 0.391z"></path>
<path d="M53.933 21.333h-12.6c-0.736 0-1.333-0.597-1.333-1.333s0.597-1.333 1.333-1.333h12.6c0.736 0 1.333 0.597 1.333 1.333s-0.597 1.333-1.333 1.333z"></path>
<path d="M34.791 33.256c-1.991 0-3.667-0.589-4.885-1.808-0.521-0.52-0.521-1.364 0-1.885s1.364-0.521 1.885 0c2.167 2.165 7.293 0.924 12.861-2.895h-8.652c-0.736 0-1.333-0.597-1.333-1.333s0.597-1.333 1.333-1.333h12.6c0.56 0 1.061 0.351 1.253 0.877s0.033 1.117-0.396 1.477c-5.361 4.495-10.651 6.9-14.667 6.9z"></path>
<path d="M57.933 16h-11.267c-0.736 0-1.333-0.597-1.333-1.333s0.597-1.333 1.333-1.333h10.483c2.463-4.58 2.86-8.351 1.040-10.171-0.521-0.521-0.521-1.365 0-1.885 0.521-0.521 1.364-0.521 1.885 0 2.852 2.852 2.493 7.973-0.984 14.052-0.237 0.415-0.679 0.671-1.157 0.671z"></path>
</svg>
