<!-- Generated by IcoMoon.io -->
<svg version="1.1" xmlns="http://www.w3.org/2000/svg" width="31" height="32" viewBox="0 0 31 32">
<title>not-found</title>
<path d="M12.928 0.256c0.21 0.331 0.578 0.147 0.896 0.227 0.211 0.053 0.406 0.285 0.527 0.456 0.372 0.522 0.365 1.26 0.638 1.835 0.255 0.536 0.788 0.893 1 1.451 0.24 0.631 0.182 1.385 0.227 2.048 0.121 1.764 0.159 3.441-1.326 4.651 0.090-0.502 0.412-0.933 0.493-1.451 0.194-1.228 0.119-2.555 0.104-3.797-0.005-0.438-0.003-0.934-0.082-1.365-0.020-0.11-0.132-0.476-0.308-0.313-0.128 0.118-0.080 0.414-0.079 0.569 0.003 0.539 0.071 1.082 0.085 1.621 0.029 1.189 0.121 2.506-0.155 3.669-0.081 0.339-0.322 1.033-0.621 1.233-0.237 0.159-0.615 0.132-0.887 0.132s-0.543 0.081-0.811 0.074c-0.286-0.008-0.566-0.105-0.853-0.117 0.093 0.295 0.503 0.297 0.768 0.299 0.756 0.004 1.505 0.043 2.261 0.043 1.423 0 2.994 0.15 4.395-0.103 0.961-0.174 1.863-0.604 2.731-1.038 0.586-0.293 1.383-0.564 1.812-1.081 0.266-0.321 0.237-0.715 0.236-1.105-0.002-0.946-0.264-1.821-0.492-2.731-0.129-0.514-0.232-1.004-0.536-1.451-0.297-0.436-0.747-0.74-1.148-1.070-0.484-0.398-0.956-0.868-1.493-1.194-0.284-0.173-0.614-0.26-0.894-0.439-0.369-0.236-0.181-0.692-0.685-0.877-1.023-0.376-2.299-0.26-3.371-0.26-0.714 0-1.77-0.194-2.432 0.085zM18.56 1.28c-0.819-0.017-1.709-0.116-2.517-0.253-0.367-0.062-0.789-0.216-1.024-0.515 0.386-0.114 0.848 0.050 1.237 0.11 0.58 0.090 1.174 0.074 1.749 0.165 0.319 0.050 0.524 0.151 0.555 0.493zM10.795 11.093c-0.213-0.325-0.893-0.405-1.237-0.568-0.775-0.368-1.456-0.968-2.018-1.608-0.184-0.209-0.491-0.449-0.567-0.725-0.089-0.325 0.023-0.695 0.024-1.024 0.004-0.842 0.031-1.821 0.489-2.56 0.457-0.736 1.458-1.4 2.156-1.902 0.541-0.388 1.136-0.856 1.835-0.869 0.506-0.010 1.076 0.311 1.144 0.851 0.127 1.008-0.821 2.277-1.485 2.944-0.281 0.282-0.9 0.583-0.981 0.981 0.472-0.047 0.923-0.42 1.28-0.709 0.97-0.784 2.058-1.982 2.284-3.259 0.257-1.455-1.136-2.032-2.327-1.663-1.849 0.572-3.864 2.084-4.632 3.882-0.521 1.218-0.745 3.13-0.042 4.309 0.697 1.169 2.759 1.92 4.077 1.92zM22.997 5.461c0.344 0.656 0.28 1.543 0.349 2.261 0.034 0.354 0.103 0.772-0.049 1.109-0.119 0.264-0.377 0.456-0.599 0.631-0.537 0.424-1.255 1.046-1.963 1.118v-0.043c0.587-0.389 1.127-0.909 1.621-1.408 0.227-0.23 0.493-0.486 0.568-0.811 0.145-0.629 0.029-1.403 0.029-2.048 0-0.251-0.055-0.578 0.043-0.811zM13.525 12.971c0.229 0.234 0.677 0.17 0.981 0.171 0.618 0.001 1.474-0.029 2.048 0.213-1.222 0.301-2.769 0.113-4.011-0.003-0.397-0.037-1.316-0.259-0.909-0.848 0.499-0.722 1.499-0.202 2.146-0.514v-0.085c-0.818-0.315-2.065-0.408-2.901-0.105-0.625 0.227-0.591 1.236-0.197 1.678 0.337 0.378 1.386 0.327 1.861 0.349 1.661 0.075 3.327 0.084 4.992 0.084 0.507 0 1.619 0.108 1.983-0.303 0.426-0.481 0.505-1.54-0.277-1.71-0.642-0.14-1.204-0.016-1.835 0.081-0.355 0.055-0.866-0.003-1.191 0.129-0.132 0.053-0.221 0.18-0.346 0.249-0.376 0.209-1.025 0.412-1.45 0.474-0.297 0.043-0.622 0.009-0.896 0.141zM2.475 13.824c0.078 0.389 0.513 0.679 0.811 0.91 1.026 0.794 2.679 0.555 3.657 1.498 0.627 0.605 0.705 1.524 0.875 2.328 0.16 0.756 0.442 1.491 0.876 2.133 0.389 0.576 0.86 1.071 1.376 1.533 0.098 0.087 0.503 0.453 0.633 0.234 0.085-0.144-0.166-0.357-0.25-0.444-0.358-0.368-0.741-0.714-1.069-1.109-0.814-0.979-1.262-1.986-1.417-3.243-0.050-0.405-0.169-0.834-0.073-1.237 1.544 0.879 3.178 1.55 4.693 2.499 0.375 0.235 0.741 0.484 1.109 0.729 0.149 0.099 0.39 0.21 0.485 0.368 0.112 0.186-0.325 0.452-0.442 0.555-0.548 0.482-1.102 0.968-1.621 1.481-0.101 0.1-0.477 0.598-0.635 0.509-0.228-0.127-0.339-0.786-0.417-1.021-0.251-0.757-0.401-1.544-0.654-2.304-0.115-0.344-0.228-0.782-0.555-0.981-0.104 0.361 0.227 0.805 0.341 1.152 0.285 0.862 0.456 1.76 0.649 2.645 0.050 0.229 0.417 0.697 0.336 0.896-0.091 0.223-0.391 0.429-0.559 0.597l-1.323 1.323c-1.613 1.613-3.237 3.259-4.949 4.766-0.573 0.505-1.155 1.028-1.835 1.387-0.134 0.071-0.652 0.238-0.583 0.45 0.046 0.139 0.229 0.094 0.327 0.057 0.431-0.166 0.836-0.242 1.28-0.364 1.725-0.474 3.52-0.473 5.248-0.906 1.25-0.313 2.32-0.977 3.456-1.545 0.278-0.139 0.607-0.116 0.896-0.218 0.35-0.123 0.675-0.381 0.981-0.585 0.54-0.359 1.054-0.738 1.536-1.173 0.15-0.135 0.42-0.503 0.64-0.503 0.267 0 0.661 0.52 0.853 0.686 0.655 0.564 1.395 1.138 2.176 1.519 0.293 0.143 0.638 0.116 0.939 0.234 0.416 0.164 0.797 0.457 1.195 0.663 0.712 0.368 1.493 0.669 2.261 0.898 1.187 0.355 2.453 0.371 3.669 0.574 0.818 0.136 1.682 0.284 2.475 0.52 0.17 0.051 0.632 0.38 0.779 0.174 0.143-0.199-0.363-0.379-0.48-0.439-0.686-0.349-1.255-0.861-1.835-1.358-1.803-1.545-3.484-3.288-5.163-4.967l-1.28-1.28c-0.139-0.139-0.45-0.351-0.487-0.555-0.037-0.207 0.275-0.551 0.33-0.768 0.231-0.909 0.373-1.837 0.668-2.731 0.115-0.347 0.445-0.791 0.341-1.152-0.449 0.273-0.571 1.026-0.725 1.493-0.289 0.876-0.342 1.986-0.853 2.772-0.147 0.226-0.406 0.409-0.598 0.599-0.245 0.244-0.517 0.533-0.853 0.64l0.341-2.091c-0.198 0.131-0.242 0.419-0.29 0.64-0.104 0.484-0.156 1.005-0.385 1.451-0.394 0.766-1.62 1.459-2.354 1.877l0.085-0.896c-0.274 0.179-0.443 0.61-0.684 0.852-0.733 0.734-1.45 1.442-2.345 1.981-0.376 0.227-0.817 0.601-1.28 0.495 0.143-0.251 0.28-0.537 0.374-0.811 0.026-0.076 0.089-0.279-0.042-0.302-0.144-0.026-0.265 0.248-0.318 0.345-0.234 0.425-0.414 0.86-0.824 1.15-0.901 0.637-1.98 1.040-3.029 1.355-0.452 0.136-0.933 0.301-1.408 0.311l0.043-0.341-0.853 0.451-2.475 0.36 1.365-0.969 2.603-1.914 1.408-1.042-0.171 0.768h0.043c0.167-0.314 0.237-0.694 0.45-0.981 0.306-0.412 0.816-0.714 1.214-1.033 0.785-0.628 1.562-1.266 2.347-1.894 2.273-1.819 4.731-3.612 7.253-5.076 1.277-0.741 2.648-1.297 3.925-2.023 0.096 0.404-0.023 0.832-0.073 1.237-0.155 1.256-0.603 2.264-1.417 3.243-0.329 0.396-0.711 0.741-1.069 1.109-0.084 0.086-0.335 0.299-0.25 0.444 0.13 0.22 0.536-0.146 0.633-0.234 0.516-0.461 0.987-0.957 1.376-1.533 0.434-0.643 0.716-1.377 0.876-2.133 0.17-0.803 0.248-1.723 0.875-2.328 0.978-0.943 2.631-0.704 3.657-1.498 0.298-0.231 0.732-0.522 0.811-0.91-0.918 0-1.924 0.329-2.773 0.666-0.445 0.176-1.012 0.515-1.493 0.533-0.34 0.012-0.702-0.19-1.024-0.284-0.396-0.116-0.798-0.202-1.195-0.315-0.183-0.052-0.359-0.077-0.427 0.126 0.63 0.15 1.778 0.022 2.048 0.811-0.449-0.046-0.861-0.361-1.323-0.443-1.28-0.228-2.77-0.015-3.925 0.582-0.95 0.491-1.848 1.252-2.688 1.91-0.232 0.182-0.726 0.801-1.024 0.801s-0.792-0.62-1.024-0.801c-0.84-0.658-1.738-1.419-2.688-1.91-1.155-0.597-2.645-0.81-3.925-0.582-0.462 0.082-0.874 0.397-1.323 0.443 0.27-0.788 1.418-0.661 2.048-0.811-0.067-0.203-0.244-0.178-0.427-0.126-0.396 0.113-0.799 0.199-1.195 0.315-0.322 0.094-0.684 0.296-1.024 0.284-0.481-0.017-1.048-0.356-1.493-0.533-0.849-0.336-1.856-0.666-2.773-0.666zM12.331 16.811v-0.043c-0.672-0.174-1.341 0.045-2.005-0.061-0.519-0.084-1.027-0.463-1.493-0.696-0.292-0.146-0.783-0.266-0.939-0.565 2.085-0.923 4.38 0.092 6.016 1.374 0.529 0.415 1.067 0.817 1.579 1.253 0.125 0.107 0.46 0.303 0.46 0.487 0 0.223-0.481 0.504-0.631 0.644-0.136 0.126-0.285 0.321-0.469 0.377-0.296 0.089-0.882-0.496-1.109-0.664-0.671-0.496-1.386-0.908-2.091-1.352-0.158-0.099-0.622-0.303-0.596-0.535 0.015-0.13 0.195-0.157 0.297-0.169 0.32-0.036 0.659-0.050 0.981-0.050zM24.704 15.445c-0.156 0.3-0.647 0.419-0.939 0.565-0.467 0.233-0.974 0.612-1.493 0.696-0.664 0.107-1.333-0.112-2.005 0.061v0.043l0.981 0.050 0.297 0.169-0.255 0.317-1.024 0.64-2.517 1.687-1.579 0.295v0.085l0.939 0.128-0.64 0.592-1.152 0.907-2.56 2.026-1.365 1.069-0.896 0.313v0.043h0.384c-0.152 0.472-0.907 0.831-1.28 1.128-0.88 0.702-1.773 1.367-2.688 2.023-0.418 0.299-0.872 0.745-1.365 0.902 0.317-0.611 0.996-1.119 1.493-1.582 0.786-0.732 1.545-1.498 2.304-2.258 2.947-2.947 5.92-5.856 9.216-8.423 1.686-1.314 3.978-2.434 6.144-1.475zM27.051 29.184c-0.493-0.157-0.948-0.603-1.365-0.902-0.915-0.656-1.808-1.321-2.688-2.023-0.373-0.298-1.128-0.657-1.28-1.128h0.384v-0.043c-0.754-0.281-1.232-0.577-1.877-1.067 0.1-0.198 0.706-0.843 0.938-0.761 0.155 0.055 0.268 0.251 0.386 0.358 0.403 0.366 0.765 0.784 1.15 1.17 0.932 0.932 1.864 1.861 2.816 2.772 0.507 0.485 1.208 0.991 1.536 1.623zM23.083 27.435h0.043l-0.171-0.768c0.441 0.068 0.917 0.658 1.28 0.921 0.944 0.681 1.857 1.404 2.816 2.065 0.374 0.258 1.071 0.531 1.28 0.94l-1.28-0.208-1.237-0.152-0.811-0.451 0.043 0.341c-0.491-0.004-0.984-0.171-1.451-0.311-1.040-0.312-2.082-0.714-2.987-1.326-0.416-0.281-0.591-0.713-0.824-1.137-0.050-0.092-0.181-0.385-0.318-0.357-0.117 0.024-0.050 0.206-0.026 0.272 0.1 0.276 0.246 0.538 0.357 0.811-0.391 0.114-0.744-0.148-1.067-0.341-0.828-0.497-1.536-1.066-2.219-1.749v-0.043l0.256-0.171c0.113 0.559 0.522 0.113 0.811-0.124 0.496-0.408 1.056-0.718 1.579-1.088 0.172-0.122 0.455-0.406 0.683-0.377 0.341 0.044 0.762 0.553 1.024 0.762 0.56 0.449 1.338 0.891 1.768 1.468 0.215 0.287 0.322 0.692 0.45 1.024z"></path>
</svg>
