<?xml version="1.0" standalone="no"?>
<!DOCTYPE svg PUBLIC "-//W3C//DTD SVG 20010904//EN"
 "http://www.w3.org/TR/2001/REC-SVG-20010904/DTD/svg10.dtd">
<svg version="1.0" xmlns="http://www.w3.org/2000/svg"
 width="512.000000pt" height="512.000000pt" viewBox="0 0 512.000000 512.000000"
 preserveAspectRatio="xMidYMid meet">

<g transform="translate(0.000000,512.000000) scale(0.100000,-0.100000)"
fill="#000000" stroke="none">
<path d="M2332 5103 c-45 -22 -74 -67 -79 -122 -9 -97 61 -161 178 -161 183 0
450 -45 631 -105 59 -19 111 -35 115 -35 10 0 207 229 201 235 -9 10 -173 70
-272 99 -279 85 -687 132 -774 89z"/>
<path d="M4191 5109 c-178 -30 -335 -123 -488 -289 -330 -360 -1460 -1761
-2979 -3695 -601 -764 -692 -882 -708 -913 -62 -119 77 -258 195 -196 33 17
255 189 1139 885 1404 1106 2935 2331 2964 2373 18 25 -115 233 -238 371 -33
37 -101 100 -151 140 -144 115 -205 228 -205 379 0 312 303 529 596 426 150
-52 439 -329 634 -607 24 -35 47 -63 52 -63 25 0 92 186 109 302 76 523 -392
974 -920 887z"/>
<path d="M4105 4300 c-54 -28 -78 -63 -82 -124 -5 -66 14 -97 104 -168 92 -74
246 -237 314 -334 129 -180 230 -398 294 -628 59 -218 70 -310 70 -601 0 -227
-3 -276 -23 -388 -43 -236 -111 -444 -211 -647 -61 -122 -167 -300 -180 -300
-4 0 -32 22 -62 48 -370 327 -756 502 -1109 504 -168 2 -285 -29 -421 -109
-172 -100 -312 -285 -365 -483 -27 -101 -26 -302 4 -403 96 -334 374 -560 717
-584 100 -6 258 9 380 37 276 64 543 215 795 448 l84 79 65 -76 c87 -103 259
-334 327 -442 59 -93 106 -129 168 -129 79 0 153 84 144 165 -8 68 -196 345
-393 579 -55 65 -104 124 -108 130 -6 7 20 56 67 129 405 635 530 1358 355
2059 -74 295 -210 589 -379 817 -170 229 -406 440 -495 441 -11 0 -38 -9 -60
-20z m-710 -2957 c220 -41 512 -205 738 -413 l68 -63 -53 -54 c-249 -255 -566
-409 -883 -429 -172 -11 -299 34 -409 144 -239 239 -169 642 137 788 113 53
225 61 402 27z"/>
</g>
</svg>
