<?xml version="1.0" standalone="no"?>
<!DOCTYPE svg PUBLIC "-//W3C//DTD SVG 20010904//EN"
 "http://www.w3.org/TR/2001/REC-SVG-20010904/DTD/svg10.dtd">
<svg version="1.0" xmlns="http://www.w3.org/2000/svg"
 width="108.000000pt" height="109.000000pt" viewBox="0 0 108.000000 109.000000"
 preserveAspectRatio="xMidYMid meet">

<g transform="translate(0.000000,109.000000) scale(0.100000,-0.100000)"
fill="#000000" stroke="none">
<path d="M877 1079 c-438 -36 -719 -214 -794 -502 -10 -40 -16 -102 -15 -177
0 -84 -5 -131 -18 -176 -10 -33 -20 -80 -21 -104 -5 -61 17 -63 24 -3 3 26 13
71 21 99 l16 51 107 6 c103 6 258 38 277 58 20 19 -6 22 -52 7 -26 -9 -71 -21
-100 -27 -57 -12 -212 -15 -212 -5 0 4 12 28 26 54 l26 48 117 4 c90 3 130 9
181 28 76 28 74 26 66 38 -3 6 -36 0 -82 -14 -87 -28 -254 -44 -254 -25 0 6
12 29 26 51 29 44 34 45 178 55 281 18 467 148 645 452 24 40 40 77 36 83 -7
11 -53 11 -198 -1z m53 -29 c-8 -5 -22 -10 -31 -10 -9 0 -74 -29 -145 -65
-259 -130 -483 -334 -622 -567 l-37 -63 -3 66 c-7 152 48 294 157 406 113 117
299 193 554 228 122 17 147 18 127 5z m99 -22 c-38 -72 -146 -215 -209 -278
-56 -55 -141 -109 -216 -137 -105 -38 -324 -68 -324 -43 0 5 45 54 100 109
152 152 346 273 548 341 108 37 117 37 101 8z"/>
<path d="M431 105 l-77 -75 -178 0 c-138 0 -177 -3 -174 -12 5 -14 275 -24
333 -13 19 3 60 34 110 80 44 41 86 74 93 75 7 0 46 -31 87 -70 41 -39 80 -70
88 -70 8 0 39 18 68 40 30 22 59 40 65 40 7 0 31 -21 53 -46 38 -43 45 -47 93
-50 58 -3 88 2 88 17 0 5 -29 9 -63 9 -63 0 -65 1 -106 45 -53 57 -82 59 -138
10 -23 -19 -50 -35 -60 -35 -11 0 -48 29 -82 65 -86 89 -99 88 -200 -10z"/>
</g>
</svg>
