<?xml version="1.0" standalone="no"?>
<!DOCTYPE svg PUBLIC "-//W3C//DTD SVG 20010904//EN"
 "http://www.w3.org/TR/2001/REC-SVG-20010904/DTD/svg10.dtd">
<svg version="1.0" xmlns="http://www.w3.org/2000/svg"
 width="682.000000pt" height="166.000000pt" viewBox="0 0 682.000000 166.000000"
 preserveAspectRatio="xMidYMid meet">

<g transform="translate(0.000000,166.000000) scale(0.100000,-0.100000)"
fill="#000000" stroke="none">
<path d="M2995 1642 c-42 -13 -153 -15 -715 -17 -608 -2 -678 -4 -818 -23
-176 -24 -226 -43 -319 -120 -42 -35 -70 -68 -88 -107 -15 -31 -30 -54 -32
-51 -9 9 19 77 44 107 14 16 23 33 19 36 -8 8 -8 9 -58 -77 l-44 -75 -132 -65
c-173 -85 -191 -105 -96 -102 32 2 76 17 147 52 144 71 175 69 307 -20 86 -57
133 -72 249 -78 85 -4 103 -2 99 9 -3 10 -32 16 -99 20 -107 7 -138 14 -194
42 -51 25 -145 98 -145 113 0 15 209 80 353 109 67 13 186 33 264 45 78 11
148 22 155 25 7 2 120 14 251 25 222 20 241 21 280 6 41 -16 41 -16 19 2 -23
18 -22 18 90 31 115 13 265 35 328 47 32 6 28 2 -42 -49 -42 -30 -89 -57 -105
-59 -20 -2 -28 -8 -28 -23 0 -27 -161 -108 -260 -131 -67 -16 -75 -16 -120 0
-56 18 -65 19 -65 7 0 -5 19 -16 42 -26 l43 -17 -25 -13 c-44 -24 -152 -38
-264 -33 -105 3 -107 3 -85 -14 12 -10 20 -20 18 -22 -6 -5 -155 -26 -183 -26
-13 0 -51 18 -86 40 -34 23 -67 39 -72 38 -6 -2 15 -20 46 -41 31 -20 56 -42
56 -47 0 -6 -30 -10 -67 -10 -72 0 -65 -2 -238 98 -38 22 -80 43 -92 47 -39
11 -25 -11 20 -31 23 -10 83 -46 132 -79 l90 -59 80 0 c93 0 351 46 348 61 -1
7 31 14 80 17 134 11 220 27 257 48 19 11 72 31 118 44 111 32 208 81 311 158
108 80 221 153 267 172 19 8 32 19 29 24 -7 12 -6 12 -70 -8z m-400 -50 l160
-7 -165 -22 c-242 -33 -315 -39 -305 -23 5 8 3 11 -6 7 -48 -20 -108 -29 -305
-47 -122 -11 -234 -20 -250 -20 l-27 0 23 25 c36 38 20 38 -33 1 -30 -22 -65
-36 -95 -40 -26 -4 -98 -16 -159 -28 -62 -12 -116 -18 -119 -15 -4 4 6 23 21
44 27 35 27 37 4 18 -13 -10 -42 -36 -64 -56 -29 -27 -61 -43 -114 -59 -40
-12 -81 -24 -89 -28 -13 -5 -12 1 5 27 39 63 106 121 177 156 65 32 84 36 231
50 318 29 677 35 1110 17z"/>
<path d="M379 1112 c-85 -8 -104 -119 -25 -145 32 -11 187 7 220 25 37 20 129
48 158 48 15 0 28 5 28 10 0 6 -35 10 -82 11 -46 1 -94 5 -108 10 -15 5 36 7
135 5 167 -3 189 -7 200 -34 11 -29 -27 -53 -94 -59 -33 -3 -61 -9 -61 -14 0
-13 87 -22 153 -16 73 7 91 24 84 81 -8 61 -20 67 -148 72 -191 7 -422 10
-460 6z"/>
<path d="M312 925 c-67 -19 -250 -109 -281 -140 -36 -35 -38 -99 -7 -229 14
-60 36 -126 47 -147 24 -41 170 -164 237 -198 23 -12 42 -27 42 -35 0 -31 38
-47 136 -57 119 -12 309 -8 309 6 0 6 -13 12 -30 13 -44 5 -63 28 -86 103 -12
38 -36 88 -56 113 -45 58 -52 96 -52 271 -1 115 3 147 18 180 20 43 81 108 66
70 -30 -78 -35 -117 -35 -274 0 -172 5 -214 23 -208 7 2 11 73 11 213 1 181 3
215 20 252 10 23 27 47 37 52 10 6 55 10 101 10 57 0 78 3 68 10 -25 16 -505
11 -568 -5z m-160 -129 l-77 -74 1 -108 c2 -135 -14 -116 -22 28 l-7 104 44
38 c34 29 118 82 136 86 2 0 -32 -33 -75 -74z m477 -636 c13 -6 21 -14 18 -16
-4 -4 -178 13 -224 22 -13 2 -23 10 -23 17 0 10 21 10 103 1 57 -6 114 -17
126 -24z"/>
<path d="M980 898 c106 -48 140 -70 198 -128 l65 -65 -6 -98 c-8 -127 -26
-167 -109 -239 -135 -119 -231 -156 -278 -106 -11 12 -20 32 -20 43 0 61 65
172 137 234 65 56 32 53 -45 -3 -57 -42 -134 -138 -160 -199 -30 -70 -5 -141
57 -167 94 -39 364 132 428 271 23 50 43 142 43 201 0 21 3 38 8 38 15 0 91
-137 142 -257 59 -139 110 -218 157 -246 l32 -18 25 24 c14 14 59 94 100 179
41 84 81 162 90 173 16 19 16 20 30 1 28 -35 74 -181 84 -264 5 -45 15 -89 22
-97 14 -16 45 -21 35 -5 -3 5 -13 49 -21 97 -8 49 -29 152 -46 230 -31 142
-31 143 -13 183 10 22 15 44 11 48 -12 11 -69 -62 -123 -156 -26 -46 -64 -110
-83 -144 -41 -70 -114 -153 -128 -144 -6 3 -50 70 -98 148 -135 219 -198 311
-238 346 -65 57 -240 133 -300 131 -19 0 -18 -1 4 -11z"/>
<path d="M2670 729 c-29 -12 -70 -48 -70 -62 0 -6 -7 -18 -15 -27 -43 -48 -51
-238 -13 -337 10 -29 18 -55 16 -57 -2 -3 14 -23 36 -45 66 -68 151 -65 229 7
28 27 36 62 14 62 -8 0 -22 -9 -33 -21 -27 -30 -68 -49 -105 -49 -67 0 -123
98 -135 237 -6 61 -3 82 16 135 33 88 47 106 90 118 55 15 95 -3 126 -56 28
-47 44 -56 44 -24 0 39 -29 90 -62 110 -35 21 -96 25 -138 9z"/>
<path d="M2258 692 c-33 -73 -137 -407 -152 -485 -6 -33 -4 -38 16 -46 20 -7
24 -5 30 23 3 17 4 34 2 38 -2 3 0 9 5 12 5 3 12 28 16 55 10 72 21 82 97 88
37 3 77 3 91 -1 29 -7 47 -49 47 -107 0 -21 7 -44 15 -53 8 -8 15 -21 15 -29
0 -20 23 -37 38 -28 9 5 9 18 -2 57 -8 27 -26 91 -40 142 -14 51 -28 97 -31
102 -3 6 -17 52 -30 104 -34 133 -49 166 -77 166 -17 0 -27 -10 -40 -38z m52
-54 c0 -12 5 -51 11 -87 9 -48 14 -60 19 -46 5 14 9 5 11 -31 l4 -52 -65 -5
c-36 -3 -67 -4 -68 -2 -4 3 6 42 49 188 19 64 39 82 39 35z"/>
<path d="M2890 710 c0 -18 6 -20 64 -20 41 0 68 -5 73 -12 4 -7 8 -128 9 -268
l2 -255 23 0 24 0 0 262 c0 144 3 264 7 268 4 4 39 7 78 6 63 -1 71 1 68 17
-3 15 -21 17 -176 20 -167 2 -172 2 -172 -18z"/>
<path d="M3324 717 c-2 -7 -4 -73 -2 -147 1 -74 0 -187 -1 -251 -5 -184 13
-202 85 -86 123 198 194 327 194 352 0 8 5 15 10 15 10 0 14 -121 11 -326 -1
-69 2 -94 13 -103 8 -7 19 -10 24 -7 14 8 13 549 -1 558 -19 12 -37 9 -37 -5
0 -27 -126 -269 -201 -387 -5 -8 -17 -31 -26 -50 l-16 -35 -9 30 c-5 17 -6
126 -3 243 7 211 7 212 -14 212 -12 0 -24 -6 -27 -13z"/>
<path d="M3913 673 c-9 -32 -16 -62 -15 -66 1 -4 -4 -20 -12 -35 -7 -15 -16
-47 -20 -72 -4 -25 -26 -111 -50 -193 l-44 -147 24 0 c29 0 44 26 60 105 14
64 31 133 59 230 9 33 22 84 27 112 10 51 28 64 28 21 0 -19 34 -176 61 -283
10 -39 22 -71 40 -107 5 -10 9 -31 9 -48 0 -26 4 -30 26 -30 27 0 28 3 10 65
-3 11 -22 85 -41 165 -20 80 -48 188 -63 240 -25 87 -30 95 -54 98 -25 3 -28
-1 -45 -55z"/>
<path d="M4256 717 c-15 -11 -17 -39 -20 -279 -1 -147 0 -272 4 -278 8 -14 37
-3 44 17 4 8 1 33 -4 54 -6 22 -8 45 -4 51 4 7 9 34 10 61 1 27 5 52 9 55 8 8
106 20 172 21 62 1 61 3 65 -161 2 -106 10 -127 35 -95 8 9 18 384 14 527 -1
30 -15 45 -35 37 -13 -5 -16 -30 -18 -134 l-3 -128 -104 -3 c-67 -2 -108 1
-117 9 -10 8 -14 40 -14 123 0 123 -6 143 -34 123z"/>
<path d="M4758 723 c-1 -7 -7 -386 -8 -478 0 -135 36 -109 167 117 23 40 49
84 57 98 8 14 27 52 42 84 l28 60 9 -35 c5 -19 7 -114 5 -211 -4 -142 -2 -180
8 -189 11 -9 18 -8 28 0 10 9 13 29 9 79 -5 69 -4 290 1 397 2 33 -1 66 -6 73
-17 20 -38 14 -49 -15 -18 -47 -120 -246 -149 -288 -14 -22 -39 -65 -54 -95
-16 -30 -33 -59 -38 -65 -6 -7 -9 66 -8 210 3 281 4 265 -20 265 -11 0 -21 -3
-22 -7z"/>
<path d="M5260 715 c-10 -11 -11 -66 -6 -233 3 -119 8 -228 10 -242 1 -14 4
-35 4 -48 2 -23 3 -23 135 -23 209 1 202 2 201 -39 0 -19 -3 -55 -5 -79 -4
-47 16 -72 25 -29 2 13 12 58 22 101 12 58 14 81 5 90 -8 8 -14 8 -22 0 -18
-18 -58 8 -69 47 -13 45 -13 80 0 80 6 0 10 17 10 38 0 26 -3 33 -9 22 -13
-20 -19 203 -7 258 8 34 6 46 -6 59 -34 33 -38 8 -38 -235 0 -130 -4 -242 -8
-249 -6 -10 -78 -16 -166 -14 -26 1 -28 3 -24 33 3 18 1 70 -5 117 -8 72 -10
200 -5 261 7 84 -11 122 -42 85z"/>
<path d="M5850 688 c-32 -71 -81 -238 -74 -250 4 -6 3 -8 -4 -4 -6 4 -14 -10
-21 -36 -5 -24 -19 -76 -30 -117 -28 -99 -28 -123 1 -119 18 2 24 14 36 68 7
36 14 75 15 88 1 12 5 22 10 22 4 0 7 6 7 14 0 16 44 26 114 25 76 -1 88 -10
90 -66 1 -11 4 -19 9 -16 4 2 7 -14 7 -36 0 -23 5 -41 10 -41 6 0 10 -8 10
-18 0 -29 23 -53 39 -43 12 8 10 28 -18 128 -18 65 -41 143 -51 173 -10 30
-30 100 -45 155 -14 55 -32 103 -38 107 -28 18 -48 7 -67 -34z m65 -123 c6
-47 9 -56 16 -40 8 17 9 15 6 -7 -3 -16 0 -28 4 -28 5 0 9 -16 9 -35 0 -33 -2
-35 -32 -35 -18 0 -51 -3 -72 -7 -36 -6 -39 -4 -32 13 5 10 12 37 17 59 5 22
13 49 18 60 5 11 12 32 15 47 4 15 11 40 17 55 l11 28 8 -25 c5 -14 12 -52 15
-85z"/>
<path d="M6106 714 c-3 -9 -6 -18 -6 -20 0 -2 29 -4 64 -4 40 0 68 -5 74 -13
10 -11 21 -403 12 -432 -1 -5 -2 -29 -1 -53 1 -39 3 -43 24 -40 22 3 22 5 22
165 0 89 2 157 6 151 4 -6 4 39 2 99 -4 82 -2 112 7 118 7 4 40 7 75 6 46 -1
64 3 68 13 9 23 -15 26 -183 26 -135 0 -159 -2 -164 -16z"/>
<path d="M6597 703 c-8 -15 -35 -91 -60 -168 -110 -336 -116 -368 -78 -378 17
-4 22 3 31 47 6 28 13 69 17 91 8 64 23 76 97 82 87 7 112 0 125 -38 6 -17 8
-35 5 -40 -3 -5 0 -9 6 -9 6 0 10 -10 9 -22 -4 -40 1 -59 11 -53 6 3 10 -4 10
-18 0 -29 20 -49 39 -38 14 9 14 9 -44 210 -14 51 -30 101 -35 110 -4 9 -17
56 -29 105 -26 110 -40 140 -68 144 -16 2 -26 -5 -36 -25z m59 -158 c5 -37 8
-45 14 -30 5 14 9 5 14 -34 4 -29 6 -54 4 -56 -10 -8 -138 -13 -138 -5 0 5 4
19 9 32 5 13 19 59 31 103 13 44 27 89 33 100 10 18 12 16 18 -20 4 -22 11
-62 15 -90z"/>
<path d="M5562 500 c0 -14 2 -19 5 -12 2 6 2 18 0 25 -3 6 -5 1 -5 -13z"/>
</g>
</svg>
