<?xml version="1.0" standalone="no"?>
<!DOCTYPE svg PUBLIC "-//W3C//DTD SVG 20010904//EN"
 "http://www.w3.org/TR/2001/REC-SVG-20010904/DTD/svg10.dtd">
<svg version="1.0" xmlns="http://www.w3.org/2000/svg"
 width="296.000000pt" height="96.000000pt" viewBox="0 0 296.000000 96.000000"
 preserveAspectRatio="xMidYMid meet">

<g transform="translate(0.000000,96.000000) scale(0.100000,-0.100000)"
fill="#000000" stroke="none">
<path d="M665 939 c-189 -24 -355 -92 -458 -189 -104 -97 -146 -197 -147 -350
-1 -47 -5 -105 -11 -130 -5 -25 -12 -70 -15 -100 -5 -66 8 -44 26 42 l11 57
42 5 c149 16 224 29 255 42 59 24 28 27 -59 5 -46 -12 -113 -21 -151 -21 l-68
0 22 45 c22 44 23 45 72 45 75 0 176 17 222 36 54 23 28 28 -47 9 -71 -19
-199 -32 -199 -20 0 4 8 20 17 36 19 32 63 49 125 49 66 0 187 29 251 59 88
42 185 135 261 249 35 54 67 107 71 120 6 22 5 22 -72 21 -43 -1 -109 -6 -148
-10z m100 -19 c-3 -5 -13 -10 -21 -10 -30 0 -231 -111 -314 -174 -108 -81
-227 -205 -291 -304 -28 -42 -53 -79 -56 -82 -3 -3 -3 37 -1 88 5 81 10 103
42 166 79 160 225 254 466 299 140 27 184 31 175 17z m85 -13 c0 -24 -101
-159 -169 -228 -102 -102 -245 -159 -399 -159 l-56 0 69 71 c136 138 301 244
470 303 84 29 85 30 85 13z"/>
<path d="M983 499 c-98 -63 -113 -318 -23 -404 25 -24 39 -29 82 -30 43 0 53
3 56 18 3 14 -1 17 -21 12 -43 -11 -95 19 -117 67 -27 58 -27 186 -1 244 25
55 67 87 104 80 23 -5 28 -3 25 12 -5 26 -66 27 -105 1z"/>
<path d="M1110 505 c0 -11 11 -15 40 -15 l40 0 0 -210 c0 -203 1 -210 20 -210
19 0 20 7 20 210 l0 210 40 0 c29 0 40 4 40 15 0 12 -18 15 -100 15 -82 0
-100 -3 -100 -15z"/>
<path d="M1360 295 l0 -225 28 0 c26 0 29 5 91 188 35 103 68 191 72 197 5 5
9 -78 9 -188 0 -168 2 -197 15 -197 13 0 15 32 15 225 l0 225 -28 0 c-27 0
-29 -4 -94 -197 l-66 -198 -1 198 c-1 190 -2 197 -21 197 -19 0 -20 -7 -20
-225z"/>
<path d="M1699 295 c-50 -200 -54 -225 -39 -225 15 0 26 34 65 190 26 105 49
189 51 187 2 -2 25 -88 50 -190 40 -164 49 -187 66 -187 14 0 18 5 14 18 -3 9
-28 110 -57 225 -47 189 -53 207 -73 207 -20 0 -26 -19 -77 -225z"/>
<path d="M1970 235 c0 -140 2 -165 15 -165 12 0 15 16 15 80 l0 80 55 0 55 0
0 -80 c0 -64 3 -80 15 -80 13 0 15 25 15 165 0 140 -2 165 -15 165 -12 0 -15
-14 -15 -70 l0 -70 -55 0 -55 0 0 70 c0 56 -3 70 -15 70 -13 0 -15 -25 -15
-165z"/>
<path d="M2240 276 c0 -130 10 -180 40 -196 30 -16 64 -12 88 10 l22 21 0 -21
c0 -11 7 -20 15 -20 13 0 15 25 15 165 0 134 -3 165 -14 165 -11 0 -15 -28
-18 -129 -3 -110 -7 -133 -23 -151 -25 -28 -66 -23 -82 10 -8 16 -13 69 -13
148 0 102 -2 122 -15 122 -13 0 -15 -20 -15 -124z"/>
<path d="M2510 268 c0 -147 9 -177 54 -193 21 -7 34 -6 58 8 17 10 32 16 33
15 27 -39 35 -56 35 -75 0 -13 5 -23 10 -23 6 0 10 20 10 44 0 25 -4 48 -10
51 -6 4 -10 67 -10 156 0 120 -3 149 -14 149 -11 0 -14 -27 -18 -124 -4 -137
-18 -176 -63 -176 -45 0 -55 32 -55 172 0 107 -2 128 -15 128 -13 0 -15 -21
-15 -132z"/>
<path d="M2823 390 c-13 -5 -23 -17 -23 -26 0 -12 5 -14 18 -9 67 29 102 11
102 -52 0 -31 -2 -33 -37 -33 -55 0 -100 -31 -108 -74 -19 -99 53 -169 123
-120 12 8 22 10 22 5 0 -6 7 -11 15 -11 13 0 15 22 15 140 0 136 -1 142 -25
165 -25 26 -62 31 -102 15z m97 -203 c0 -64 -20 -97 -59 -97 -38 0 -56 24 -56
72 0 49 31 78 81 78 l34 0 0 -53z"/>
<path d="M394 171 c-21 -16 -52 -43 -68 -60 l-30 -31 -137 0 c-81 0 -140 -4
-144 -10 -9 -14 215 -20 265 -7 14 3 54 31 90 61 36 31 70 56 77 56 6 0 40
-25 75 -55 34 -30 66 -55 69 -55 3 0 26 13 50 30 24 16 51 30 60 30 8 0 30
-16 49 -35 30 -31 39 -35 87 -35 29 0 53 5 53 10 0 6 -22 10 -50 10 -43 0 -55
5 -89 35 -46 42 -66 43 -111 10 -19 -14 -40 -25 -48 -25 -8 0 -39 22 -70 50
-31 28 -63 50 -72 50 -10 0 -35 -13 -56 -29z"/>
</g>
</svg>
