<?xml version="1.0" standalone="no"?>
<!DOCTYPE svg PUBLIC "-//W3C//DTD SVG 20010904//EN"
 "http://www.w3.org/TR/2001/REC-SVG-20010904/DTD/svg10.dtd">
<svg version="1.0" xmlns="http://www.w3.org/2000/svg"
 width="512.000000pt" height="512.000000pt" viewBox="0 0 512.000000 512.000000"
 preserveAspectRatio="xMidYMid meet">

<g transform="translate(0.000000,512.000000) scale(0.100000,-0.100000)"
fill="#000000" stroke="none">
<path d="M1853 5106 c-43 -19 -180 -162 -222 -231 -46 -76 -72 -155 -78 -240
-12 -154 36 -293 147 -425 76 -90 93 -127 93 -205 0 -72 -24 -125 -94 -204
-184 -207 -182 -513 5 -734 88 -104 155 -128 236 -87 45 23 80 80 80 130 0 41
-30 97 -75 140 -59 56 -79 104 -79 185 -1 84 14 117 89 206 195 230 186 533
-23 761 -63 69 -77 103 -77 188 0 93 14 120 110 220 86 89 95 105 95 163 0
105 -108 175 -207 133z"/>
<path d="M1039 4460 c-53 -28 -183 -174 -224 -251 -109 -207 -79 -444 79 -629
76 -89 100 -139 100 -215 -1 -72 -22 -119 -94 -201 -163 -186 -184 -458 -50
-661 73 -112 159 -183 222 -183 42 0 103 38 126 79 41 72 28 126 -52 212 -115
123 -114 248 0 380 100 115 148 237 148 379 0 143 -47 261 -149 379 -71 80
-86 111 -92 183 -8 86 14 134 108 234 44 46 84 95 89 110 50 132 -86 250 -211
184z"/>
<path d="M4568 3606 c-28 -15 -715 -533 -723 -545 -6 -11 514 -676 529 -676 6
0 170 123 363 274 371 288 383 300 383 379 0 41 -15 64 -211 318 -190 247
-208 264 -281 264 -18 0 -45 -6 -60 -14z"/>
<path d="M3000 2425 c-322 -245 -586 -448 -587 -452 -2 -5 15 -18 37 -31 22
-12 56 -37 75 -54 l36 -31 32 31 c43 42 134 88 200 102 37 7 192 10 478 8
l424 -3 61 -26 62 -26 153 119 c85 65 155 122 156 126 4 10 -517 677 -530 679
-7 1 -275 -198 -597 -442z"/>
<path d="M82 1683 c-18 -9 -43 -30 -55 -47 -22 -31 -22 -34 -22 -436 0 -353 2
-414 18 -474 90 -352 331 -598 686 -699 l76 -22 1725 -3 c1234 -2 1748 0 1805
8 381 54 683 330 782 716 16 60 18 120 18 474 0 403 0 405 -22 436 -45 63 -51
64 -473 64 -422 0 -428 -1 -472 -63 -17 -24 -23 -51 -28 -123 -7 -111 -33
-159 -102 -193 -88 -42 -195 -15 -246 61 -21 33 -27 55 -32 132 -5 72 -11 99
-28 123 -44 62 -50 63 -472 63 -422 0 -428 -1 -472 -63 -17 -24 -23 -51 -28
-123 -5 -77 -11 -99 -32 -132 -30 -45 -97 -82 -148 -82 -51 0 -118 37 -148 82
-21 33 -27 55 -32 132 -5 72 -11 99 -28 123 -44 62 -50 63 -472 63 -422 0
-428 -1 -472 -63 -17 -24 -23 -51 -28 -123 -5 -77 -11 -99 -32 -132 -72 -107
-244 -107 -316 0 -21 33 -27 55 -32 132 -5 72 -11 99 -28 123 -44 62 -50 63
-474 63 -332 0 -387 -3 -416 -17z"/>
</g>
</svg>
